<svg width="20.0885" height="24" viewBox="0 0 20.0885 24" fill="none" xmlns="http://www.w3.org/2000/svg">
  <g>
    <path d="M18.7772 21.478C18.5522 21.5524 18.3165 21.5906 18.0791 21.5911H1.98444C1.56378 21.5975 1.15217 21.4705 0.810191 21.2288C0.468213 20.9872 0.213933 20.6436 0.0847812 20.2487C0.0277677 20.0791 -0.000860504 19.9014 1.96952e-05 19.7226C1.96952e-05 14.0909 1.96952e-05 8.45747 1.96952e-05 2.82243C0.00455704 2.39989 0.152315 1.99099 0.419766 1.66085C0.687218 1.3307 1.05898 1.0983 1.47587 1.00064C1.66523 0.955811 1.85951 0.934339 2.05424 0.936714C2.8869 0.936714 3.71955 0.936714 4.54722 0.936714C4.59135 0.944214 4.63672 0.934939 4.6742 0.910759C4.71167 0.88658 4.73845 0.849292 4.74915 0.80641C4.84408 0.568973 5.00916 0.365142 5.22297 0.221351C5.43679 0.0775592 5.68948 0.000441747 5.94828 0H14.1303C14.3926 0.000831228 14.6485 0.0802804 14.8639 0.227812C15.0794 0.375344 15.2444 0.583988 15.3369 0.826078C15.3464 0.864987 15.3704 0.898953 15.4041 0.921261C15.4378 0.943568 15.4787 0.952592 15.5188 0.946548H18.114C18.5389 0.943837 18.9532 1.07703 19.2948 1.32614C19.6364 1.57526 19.8869 1.92688 20.0087 2.32826C20.0575 2.47187 20.0844 2.62185 20.0885 2.77326V8.84592C20.0885 8.87051 20.0885 8.89263 20.0885 8.91476C19.9314 8.90001 19.8392 8.77462 19.732 8.69349C19.2184 8.3247 18.7049 7.95592 18.1938 7.57976C17.9769 7.42241 17.7625 7.2626 17.5432 7.11017C17.431 6.99462 17.3387 6.86432 17.2191 6.75122C16.8697 6.43965 16.4371 6.2332 15.9726 6.15625C15.6351 6.09205 15.2916 6.06321 14.948 6.0702C14.3433 6.08791 13.7431 6.1779 13.1605 6.33818C13.0799 6.36691 12.9917 6.36691 12.9112 6.33818C12.4433 6.16989 11.9483 6.08659 11.4503 6.09233C10.5821 6.0819 9.71527 6.16434 8.86507 6.33818C8.73962 6.35245 8.61988 6.3978 8.517 6.47003C8.41412 6.54225 8.33146 6.63899 8.27673 6.75122C8.2633 6.79043 8.24306 6.82704 8.2169 6.8594C8.15956 6.90857 8.11219 6.8594 8.06483 6.84465C6.98287 6.24967 5.9059 5.64978 4.82394 5.05727C4.78156 5.03268 4.72672 5.02039 4.70677 4.9663C4.69391 4.81583 4.69224 4.66464 4.70179 4.51393C4.70179 4.26807 4.58462 4.16727 4.34778 4.16235C4.11095 4.15743 3.82675 4.16235 3.56748 4.16235C3.38525 4.16075 3.2087 4.22482 3.07099 4.34252C2.93327 4.46022 2.84388 4.62346 2.81959 4.80158C2.80169 4.90142 2.79252 5.00259 2.79216 5.10398C2.79216 7.1954 2.79216 9.28846 2.79216 11.3832C2.78714 11.8016 2.87745 12.2158 3.05642 12.5952C3.18601 12.8632 3.37721 13.0976 3.61481 13.2798C3.8524 13.4621 4.12985 13.5871 4.42507 13.645C4.55325 13.6639 4.67989 13.6918 4.804 13.7286C4.78655 13.7704 4.804 13.7827 4.84389 13.7778C4.88378 13.7729 4.89624 13.7926 4.92117 13.8048C5.62918 14.2007 6.33968 14.5867 7.05018 14.98C7.80805 15.398 8.56675 15.8151 9.32627 16.2315L11.5525 17.4607L14.0455 18.8277C14.8482 19.2727 15.6535 19.7128 16.4537 20.1578C17.1842 20.561 17.9121 20.9666 18.645 21.3649C18.6974 21.392 18.7772 21.3994 18.7772 21.478Z" fill="#FF8126"/>
    <path d="M17.575 7.08781C17.7796 7.44161 17.9078 7.83337 17.9514 8.23842C17.9514 8.30234 17.9664 8.36627 17.9689 8.43019C17.9689 10.0446 17.9689 11.6607 17.9689 13.2785C17.9769 13.3335 17.9717 13.3896 17.9538 13.4423C17.936 13.495 17.9058 13.5428 17.8659 13.582C17.8259 13.6211 17.7772 13.6506 17.7237 13.6679C17.6701 13.6852 17.6132 13.6899 17.5575 13.6817H16.4307C16.1191 13.6817 15.9869 13.5514 15.9869 13.2465V8.88011C15.9851 8.68812 15.954 8.4975 15.8947 8.31464C15.8618 8.21104 15.7994 8.11893 15.715 8.04921C15.6306 7.97949 15.5277 7.93509 15.4185 7.92127C15.1628 7.8746 14.9013 7.86714 14.6432 7.89914C14.4909 7.91185 14.3394 7.93319 14.1895 7.96306C14.1147 7.98027 14.0873 8.00977 14.0898 8.08107C14.0923 8.15237 14.0898 8.29251 14.0898 8.39823V13.1924C14.0898 13.576 13.9801 13.6841 13.5912 13.6841H12.5317C12.2375 13.6841 12.1054 13.5538 12.1054 13.2662V8.89732C12.103 8.73231 12.0863 8.56781 12.0555 8.4056C11.9957 8.10566 11.8885 7.98027 11.5793 7.93356C11.1654 7.86953 10.7432 7.87952 10.3329 7.96306C10.2157 7.98765 10.1883 8.03928 10.1883 8.14745C10.1883 9.58571 10.1883 11.024 10.1883 12.4622C10.1883 12.7081 10.1883 12.9761 10.1883 13.2318C10.1883 13.5612 10.0487 13.6964 9.7121 13.6964H8.61768C8.55942 13.7041 8.50016 13.6987 8.44431 13.6806C8.38846 13.6626 8.33745 13.6323 8.29506 13.5922C8.25267 13.552 8.21999 13.503 8.19945 13.4487C8.17892 13.3944 8.17104 13.3362 8.17642 13.2785C8.17642 13.2342 8.17642 13.1875 8.17642 13.1433V7.52298C8.16726 7.30386 8.17559 7.08437 8.20135 6.86654C8.24654 6.70054 8.34266 6.55238 8.47654 6.44235C8.61043 6.33232 8.77554 6.2658 8.94925 6.2519C9.79431 6.08303 10.6548 6.00065 11.517 6.00604C11.9866 6.00098 12.4528 6.08443 12.8907 6.2519C13.0304 6.2958 13.1813 6.28971 13.317 6.23469C13.7275 6.13879 14.1438 6.06899 14.5634 6.02571C15.0438 5.97957 15.5284 6.00276 16.0019 6.09455C16.3095 6.14311 16.6042 6.25133 16.8691 6.41296C17.134 6.57459 17.3637 6.78641 17.5451 7.03618C17.556 7.05281 17.566 7.07005 17.575 7.08781Z" fill="#FEFEFE"/>
    <path d="M4.74745 5.00503C4.74745 5.3566 4.74745 5.71063 4.74745 6.06221C4.74745 6.16055 4.7998 6.16055 4.8721 6.16055H6.40528C6.45657 6.15324 6.50885 6.15673 6.55868 6.17081C6.6085 6.18489 6.65472 6.20923 6.6943 6.24222C6.73389 6.27521 6.76592 6.31611 6.78829 6.36221C6.81067 6.40831 6.82287 6.45857 6.8241 6.50967C6.86025 6.86034 6.86025 7.21372 6.8241 7.56439C6.79169 7.84221 6.64959 7.94547 6.3629 7.94793C5.87926 7.94793 5.39562 7.94793 4.91198 7.94793C4.78235 7.94793 4.74994 7.98235 4.74994 8.10774C4.74994 9.13787 4.74994 10.168 4.74994 11.1982C4.7514 11.3401 4.77066 11.4813 4.80728 11.6186C4.82039 11.6847 4.8529 11.7456 4.90076 11.7936C4.94862 11.8417 5.00973 11.8749 5.07652 11.889C5.39581 11.9517 5.72451 11.9517 6.0438 11.889C6.2568 11.8423 6.47702 11.8373 6.69197 11.8743C6.79658 11.8883 6.89204 11.9406 6.95944 12.0207C7.02684 12.1008 7.06129 12.203 7.05595 12.307C7.05595 12.5307 7.08337 12.7544 7.07839 12.9782C7.08639 13.128 7.04608 13.2765 6.96323 13.4024C6.88038 13.5283 6.75924 13.6251 6.61718 13.6788C6.41983 13.7261 6.21889 13.7573 6.01638 13.7723C5.61927 13.8104 5.21934 13.8104 4.82224 13.7723C4.63028 13.7231 4.43582 13.701 4.24636 13.642C3.92159 13.5499 3.62649 13.3765 3.38974 13.1387C3.15298 12.9009 2.9826 12.6068 2.89516 12.2848C2.7952 11.938 2.74814 11.5784 2.75555 11.2178V5.09845C2.7466 4.91039 2.78157 4.72281 2.85776 4.55019C2.91767 4.42254 3.01333 4.31445 3.13347 4.23865C3.25362 4.16286 3.39323 4.12252 3.53586 4.1224C3.82006 4.10765 4.10426 4.1224 4.38596 4.1224C4.43246 4.12 4.47895 4.12714 4.52251 4.14336C4.56606 4.15959 4.60573 4.18455 4.639 4.21667C4.67227 4.24879 4.69842 4.28736 4.7158 4.32996C4.73318 4.37256 4.74141 4.41825 4.73997 4.46414C4.74495 4.64116 4.74495 4.81818 4.74745 5.00503Z" fill="#FEFEFE"/>
    <path d="M3.40287 18.2814C3.40634 18.0564 3.47735 17.8375 3.60693 17.6522C3.73651 17.467 3.91885 17.3238 4.13091 17.2408C4.34297 17.1577 4.57523 17.1385 4.79836 17.1855C5.02149 17.2326 5.22547 17.3438 5.38454 17.5051C5.5436 17.6665 5.65061 17.8707 5.69205 18.092C5.73349 18.3132 5.70749 18.5417 5.61735 18.7484C5.52721 18.9551 5.37696 19.1308 5.1856 19.2534C4.99423 19.3759 4.77032 19.4398 4.54217 19.4369C4.39037 19.435 4.24045 19.4036 4.10099 19.3444C3.96154 19.2853 3.83528 19.1996 3.72945 19.0922C3.62362 18.9849 3.5403 18.858 3.48426 18.7189C3.42822 18.5797 3.40057 18.4311 3.40287 18.2814Z" fill="#FEFEFE"/>
    <path d="M15.536 19.4301C15.3078 19.4316 15.0843 19.3662 14.8939 19.2421C14.7034 19.1181 14.5546 18.9411 14.4664 18.7335C14.3781 18.526 14.3544 18.2972 14.3982 18.0763C14.442 17.8555 14.5514 17.6524 14.7124 17.4929C14.8734 17.3334 15.0788 17.2247 15.3026 17.1805C15.5264 17.1364 15.7585 17.1588 15.9693 17.2449C16.1802 17.331 16.3603 17.477 16.4869 17.6643C16.6135 17.8515 16.6808 18.0717 16.6803 18.2967C16.682 18.4456 16.6535 18.5933 16.5967 18.7313C16.5398 18.8692 16.4557 18.9946 16.3492 19.1001C16.2426 19.2056 16.1159 19.2891 15.9763 19.3458C15.8367 19.4024 15.687 19.4311 15.536 19.4301Z" fill="#FEFEFE"/>
    <path d="M14.7948 22.0847H16.323L17.2679 23.9999H15.7945L14.7948 22.0847Z" fill="#1A1A1A"/>
    <path d="M5.48128 22.0847H3.95308L3.00824 23.9999H4.48159L5.48128 22.0847Z" fill="#1A1A1A"/>
  </g>
  <g transform="translate(4.66,5)">
    <path d="M0.0569017 0C0.145966 0 0.200393 0.0590059 0.267191 0.0934258C0.818891 0.393371 1.37059 0.695774 1.91735 1.00064C2.41214 1.28091 2.92426 1.56857 3.42896 1.85376C3.44582 1.86013 3.4632 1.86506 3.48091 1.86851C3.49617 1.88568 3.50688 1.90637 3.51206 1.92869C3.51725 1.95102 3.51674 1.97427 3.5106 1.99636C3.49959 2.16008 3.49959 2.32435 3.5106 2.48807V8.07639C3.50212 8.1706 3.50461 8.26548 3.51802 8.35913C3.52815 8.43366 3.56501 8.50205 3.62182 8.55174C3.67864 8.60142 3.75159 8.62906 3.82727 8.62957C4.2429 8.64268 4.65523 8.64268 5.06426 8.62957C5.14192 8.63154 5.2176 8.60507 5.2769 8.55521C5.3362 8.50534 5.37499 8.43556 5.38588 8.35913C5.4015 8.26904 5.4073 8.17755 5.4032 8.08622V3.25268C5.4032 2.94782 5.43784 2.90848 5.74214 2.86915C6.08135 2.82612 6.42469 2.82612 6.7639 2.86915C6.91922 2.86717 7.06904 2.92626 7.18071 3.03356C7.29239 3.14085 7.35688 3.28766 7.36013 3.44199C7.38652 3.61865 7.40058 3.79691 7.40219 3.9755V8.11327C7.40219 8.16736 7.40219 8.22145 7.40219 8.27799C7.39821 8.32399 7.40423 8.37031 7.41985 8.41379C7.43546 8.45727 7.46029 8.49692 7.49267 8.53003C7.52505 8.56314 7.56422 8.58894 7.60751 8.60569C7.6508 8.62244 7.69722 8.62974 7.7436 8.62711H7.76092C8.13944 8.62711 8.51796 8.62711 8.89648 8.62711C8.94661 8.63337 8.99752 8.62825 9.04537 8.61213C9.09322 8.59601 9.13677 8.56932 9.17273 8.53405C9.2087 8.49878 9.23614 8.45587 9.253 8.40853C9.26986 8.3612 9.27569 8.31068 9.27005 8.26078C9.27005 8.20178 9.27005 8.14277 9.27005 8.08377V3.23793C9.27005 2.95274 9.27005 2.93307 9.55704 2.88636C9.89317 2.82249 10.2377 2.81501 10.5763 2.86423C10.7225 2.87596 10.8607 2.93535 10.9694 3.03316C11.0781 3.13097 11.1513 3.26173 11.1775 3.40511C11.2217 3.57807 11.2466 3.75534 11.2517 3.93371C11.2517 5.30804 11.2517 6.68238 11.2517 8.05672C11.2517 8.10589 11.2517 8.15752 11.2517 8.20669C11.2517 8.51647 11.3655 8.62957 11.6797 8.63203H12.7089C12.7831 8.63543 12.8572 8.62372 12.9266 8.59761C12.9819 8.57932 13.0302 8.54444 13.0648 8.49777C13.0993 8.4511 13.1185 8.39493 13.1196 8.337C13.1196 8.28291 13.1196 8.22882 13.1196 8.17227C13.1196 6.6201 13.1196 5.06792 13.1196 3.51575C13.1202 3.07867 13.0177 2.64753 12.8202 2.25696C12.7905 2.20288 12.7411 2.15125 12.7757 2.07995C13.0528 2.24221 13.2928 2.45119 13.555 2.63558C13.8766 2.85931 14.1884 3.10025 14.505 3.33382L15.267 3.89191C15.267 3.92879 15.267 3.96567 15.267 4.00255V14.7637C15.2496 15.1474 15.1161 15.5169 14.8839 15.824C14.6518 16.1311 14.3317 16.3613 13.9657 16.4847L13.2532 16.0815C12.7955 15.8356 12.3428 15.5603 11.8801 15.3144C11.4175 15.0686 10.9697 14.7981 10.5021 14.5572C10.1137 14.358 9.74011 14.1294 9.35664 13.9155L8.04295 13.1779L6.77379 12.4723C6.34085 12.2265 5.90295 11.9806 5.46753 11.7495L4.16373 11.0119C3.56997 10.6849 2.97621 10.3604 2.38246 10.0285L0.898059 9.1975L0.170705 8.78692C0.140189 8.7774 0.108618 8.77162 0.0766932 8.76971C0.0519533 8.76971 0.0643232 8.7525 0.0766932 8.74758C0.0906796 8.74623 0.104765 8.74623 0.118752 8.74758C0.173179 8.69595 0.237503 8.71316 0.301827 8.71808C0.810029 8.76622 1.32258 8.74054 1.82333 8.64186C1.93084 8.62251 2.03047 8.5728 2.11032 8.49869C2.19016 8.42457 2.24685 8.32918 2.2736 8.2239C2.3123 8.10902 2.33153 7.98855 2.3305 7.86741C2.3305 7.66089 2.30081 7.45683 2.29834 7.25031C2.29587 7.04379 2.1598 6.97987 2.00146 6.92824C1.85711 6.87786 1.70268 6.86268 1.55119 6.88399C1.27855 6.93272 1.00188 6.95577 0.72488 6.95283C0.108856 6.92578 0.0667978 6.73647 0.0173179 6.33818C0.0173179 6.25951 0.0049481 6.18329 0.0049481 6.10462V3.15434C0.0049481 3.11746 0.0049481 3.08058 0.0049481 3.04616C0.0049481 2.90848 0.0420574 2.88144 0.183075 2.87406C0.279561 2.87406 0.376047 2.87406 0.472533 2.87406H1.57593C1.65942 2.87656 1.74281 2.86662 1.82333 2.84456C1.88432 2.83227 1.9403 2.80239 1.9843 2.75867C2.0283 2.71494 2.05836 2.65931 2.07073 2.5987C2.08924 2.53304 2.09922 2.46529 2.10042 2.3971C2.10042 2.13158 2.10042 1.86605 2.10042 1.60053C2.10042 1.335 1.96188 1.17274 1.665 1.17274H0.247399C0.0321619 1.17274 0 1.14815 0 0.92688C0 0.666272 0 0.405663 0 0.145055C0.00742198 0.108177 -0.0049481 0.0393371 0.0569017 0Z" fill="#FF7110"/>
  </g>
  <g transform="translate(5.78,0.88)">
    <path d="M4.17709 1.705H0.856991C0.694052 1.70661 0.534093 1.66156 0.396228 1.57524C0.258363 1.48891 0.148422 1.36497 0.0795424 1.21822C0.0106628 1.07147 -0.0142427 0.90811 0.00780201 0.747667C0.0298468 0.587225 0.0979098 0.436482 0.203857 0.313452C0.295745 0.209006 0.410281 0.126639 0.538842 0.0725546C0.667402 0.0184701 0.806635 -0.00592242 0.946055 0.00121421H7.3537C7.48227 0.00167176 7.61027 0.0181919 7.73469 0.0503857C7.903 0.0947062 8.05364 0.189118 8.1664 0.320954C8.27916 0.452791 8.34866 0.615745 8.36556 0.787955C8.37743 0.964671 8.33415 1.14072 8.24161 1.29208C8.14907 1.44345 8.01179 1.56275 7.8485 1.6337C7.73722 1.67609 7.61882 1.69695 7.49966 1.69517L4.17709 1.705Z" fill="#FEFEFE"/>
  </g>
</svg>
