<svg overflow="visible" style="display: block;" viewBox="0 0 427 11.2293" fill="none" xmlns="http://www.w3.org/2000/svg">
<path id="Arrow 1" d="M2.5 3.18974C1.11929 3.18974 0 4.30903 0 5.68974C0 7.07045 1.11929 8.18974 2.5 8.18974V5.68974V3.18974ZM2.6 5.68974L4.19533 3.76492L3.50135 3.18974H2.6V5.68974ZM23.775 4.63449L22.1877 2.70302V2.70302L23.775 4.63449ZM33.025 7.85054L33.7066 10.2558L33.025 7.85054ZM34.875 7.18683L33.8794 4.89362L34.875 7.18683ZM40.425 6.4042L38.0739 7.25416L40.425 6.4042ZM45.975 6.07274L48.3641 5.33638L45.975 6.07274ZM49.675 6.18709L50.0863 8.65302L49.675 6.18709ZM64.475 7.55187L62.3842 8.92253L64.475 7.55187ZM71.875 6.20386L74.1803 7.17113L71.875 6.20386ZM75.575 4.5236L77.4181 2.83452L75.575 4.5236ZM82.975 5.83254L81.2073 7.60041L82.975 5.83254ZM94.075 6.19239L91.8961 7.41812L94.075 6.19239ZM101.475 3.4929L102.658 1.29038L101.475 3.4929ZM114.425 5.73633L114.212 3.24543L114.425 5.73633ZM127.375 7.17015L125.37 8.66368L127.375 7.17015ZM131.075 6.35565L129.008 4.9501L131.075 6.35565ZM132.925 4.12963L134.633 5.95521L132.925 4.12963ZM138.475 4.77565L136.269 5.95245L138.475 4.77565ZM140.325 4.67325L138.092 3.5485L140.325 4.67325ZM145.875 4.97524L143.97 3.35615L145.875 4.97524ZM153.275 7.52669L151.36 9.13403L153.275 7.52669ZM160.675 5.91275L161.45 3.5358L160.675 5.91275ZM169.925 7.56509L169.158 5.18563L169.925 7.56509ZM175.475 7.03153L177.452 5.50089L175.475 7.03153ZM179.175 2.89173L178.127 0.622024L179.175 2.89173ZM182.875 5.43962L184.108 7.61424L182.875 5.43962ZM203.225 5.90243L202.678 8.34176L203.225 5.90243ZM206.925 7.02184L209.106 8.24304L206.925 7.02184ZM210.625 7.18281L208.45 5.95081L210.625 7.18281ZM212.475 3.89201L210.292 2.67371L212.475 3.89201ZM221.725 5.05855L223.724 3.55682L221.725 5.05855ZM234.675 6.67676L232.414 5.61078L234.675 6.67676ZM249.475 5.61203L247.44 7.0647L249.475 5.61203ZM256.875 5.37252L259.144 6.42239L256.875 5.37252ZM258.725 3.12504L259.374 5.53946L258.725 3.12504ZM264.275 4.01096L262.221 2.58632L264.275 4.01096ZM266.125 5.21698L263.776 6.07249L266.125 5.21698ZM267.975 7.59029L267.532 5.12986L267.975 7.59029ZM273.525 3.07816L275.227 1.24665L273.525 3.07816ZM279.075 7.42596L278.414 9.83694L279.075 7.42596ZM280.925 7.13564L279.658 4.98069L280.925 7.13564ZM282.775 5.78837L281.136 3.90076L282.775 5.78837ZM286.475 6.66407L286.196 4.1797L286.475 6.66407ZM288.325 4.81065L290.535 5.97916L288.325 4.81065ZM297.575 3.77903L295.636 5.35736L297.575 3.77903ZM304.975 3.45715L306.254 1.3092L304.975 3.45715ZM314.225 4.79547L313.037 6.99526L314.225 4.79547ZM323.475 5.96884L325.802 6.88213L323.475 5.96884ZM332.725 4.59758L330.962 6.36972L332.725 4.59758ZM334.575 4.97717L335.837 7.13534L334.575 4.97717ZM336.425 5.72355L338.455 4.26464V4.26464L336.425 5.72355ZM340.125 8.08175L342.076 9.64448L340.125 8.08175ZM343.825 4.89711L341.766 3.47912L343.825 4.89711ZM345.675 5.43381L343.432 6.53759L345.675 5.43381ZM347.525 7.8399L346.289 10.0128L347.525 7.8399ZM349.375 7.29091L347.48 5.66054L349.375 7.29091ZM353.075 6.84397L355.029 5.28486L353.075 6.84397ZM356.775 7.96753L358.652 9.61888L356.775 7.96753ZM358.625 4.6393L360.941 5.58027L358.625 4.6393ZM362.325 4.93188L361.636 7.335L362.325 4.93188ZM369.725 7.47881L370.174 5.01941V5.01941L369.725 7.47881ZM373.425 4.56358L371.231 3.36582L373.425 4.56358ZM378.975 4.96626L376.652 4.04213L378.975 4.96626ZM380.825 3.37842L379.267 5.33342L380.825 3.37842ZM382.675 3.83335L381.945 1.44224L382.675 3.83335ZM388.225 8.67177L389.243 10.955L388.225 8.67177ZM395.625 8.18891L394.355 10.3423V10.3423L395.625 8.18891ZM399.325 4.66347L401.664 5.54634L399.325 4.66347ZM401.175 4.78059L403.527 3.93325L401.175 4.78059ZM404.875 6.27615L406.568 8.11521L404.875 6.27615ZM408.575 4.93506L406.25 5.85397L408.575 4.93506ZM412.275 5.97203L409.897 5.20124L412.275 5.97203ZM414.125 5.39101L411.809 6.33333L414.125 5.39101ZM417.825 6.10372L420.193 5.30244L417.825 6.10372ZM421.525 5.58351L423.122 3.65969L421.525 5.58351ZM423.375 6.32462L423.447 8.82359L423.375 6.32462ZM424.4 5.99391L426.775 6.77477L426.9 6.39439L426.9 5.99398L424.4 5.99391ZM424.4 5.68974V3.18974H421.9L421.9 5.68967L424.4 5.68974ZM424.5 8.18974C425.881 8.18974 427 7.07045 427 5.68974C427 4.30903 425.881 3.18974 424.5 3.18974V5.68974V8.18974ZM2.5 5.68974V8.18974H2.6V5.68974V3.18974H2.5V5.68974ZM2.6 5.68974L1.00467 7.61456C1.8125 8.2841 3.183 9.09343 4.81911 8.63437C6.39066 8.19343 7.18141 6.85558 7.57973 5.9078L5.275 4.9392L2.97027 3.97059C2.88273 4.17887 2.83851 4.21187 2.88249 4.16179C2.93824 4.09831 3.1269 3.91608 3.46839 3.82027C3.8199 3.72165 4.10769 3.77778 4.24559 3.8258C4.3565 3.86442 4.34043 3.88519 4.19533 3.76492L2.6 5.68974ZM5.275 4.9392L7.57973 5.9078C7.70484 5.61012 7.81522 5.38767 7.90698 5.22743C7.9522 5.14847 7.98937 5.0908 8.01739 5.05073C8.04567 5.0103 8.06043 4.99382 8.0598 4.99452C8.05946 4.9949 8.03675 5.02034 7.98899 5.05839C7.94097 5.09664 7.86007 5.15364 7.7445 5.20913C7.49071 5.33097 7.13812 5.41087 6.74685 5.351L7.125 2.87976L7.50315 0.40853C6.01005 0.180053 4.92351 1.00384 4.3402 1.65318C3.75767 2.30165 3.32022 3.13789 2.97027 3.97059L5.275 4.9392ZM7.125 2.87976L6.74685 5.351C6.28222 5.2799 6.11009 5.03897 6.20622 5.14395C6.24304 5.18416 6.3119 5.26868 6.40718 5.41747C6.50142 5.56464 6.61056 5.7575 6.7321 6.00436L8.975 4.9001L11.2179 3.79583C10.854 3.05664 10.423 2.34524 9.89378 1.76729C9.37324 1.19882 8.58445 0.573992 7.50315 0.40853L7.125 2.87976ZM8.975 4.9001L6.7321 6.00436C7.08621 6.7236 7.65648 7.68341 8.60433 8.25782C9.14734 8.58688 9.84352 8.80472 10.6274 8.72119C11.3865 8.64031 11.9849 8.30278 12.4092 7.95522L10.825 6.02121L9.24083 4.0872C9.35681 3.99219 9.64686 3.79737 10.0976 3.74934C10.5731 3.69867 10.961 3.83951 11.1957 3.98172C11.3981 4.10437 11.4662 4.21245 11.4294 4.16402C11.3995 4.1246 11.3254 4.01408 11.2179 3.79583L8.975 4.9001ZM10.825 6.02121L12.4092 7.95522C12.324 8.02499 12.1014 8.18037 11.7443 8.24673C11.3604 8.31807 11.0005 8.25281 10.7289 8.13129C10.4888 8.02386 10.3781 7.90119 10.3775 7.9006C10.3737 7.89644 10.4238 7.95146 10.5156 8.10882L12.675 6.84899L14.8344 5.58917C14.4491 4.9289 13.809 4.03175 12.7711 3.56734C12.1912 3.30785 11.5229 3.20226 10.8307 3.33089C10.1653 3.45456 9.63434 3.76486 9.24083 4.0872L10.825 6.02121ZM12.675 6.84899L10.5156 8.10882C10.905 8.7762 11.4206 9.48301 12.1223 9.99719C12.8951 10.5634 13.9526 10.9229 15.1279 10.6308L14.525 8.20462L13.9221 5.7784C14.1584 5.7197 14.4129 5.71867 14.6509 5.7763C14.8761 5.83083 15.0189 5.92102 15.0777 5.96408C15.133 6.00463 15.1282 6.0135 15.0731 5.94608C15.0197 5.88071 14.9384 5.76751 14.8344 5.58917L12.675 6.84899ZM14.525 8.20462L15.1279 10.6308C15.4661 10.5468 15.787 10.5263 16.1041 10.5609L16.375 8.07561L16.6459 5.59033C15.7296 5.49045 14.8172 5.55598 13.9221 5.7784L14.525 8.20462ZM16.375 8.07561L16.1041 10.5609C17.697 10.7345 18.758 9.72804 19.2634 9.08678C19.8059 8.39847 20.222 7.51632 20.5636 6.6121L18.225 5.72843L15.8864 4.84477C15.7562 5.18936 15.6383 5.45588 15.5362 5.65586C15.4315 5.8607 15.3613 5.96031 15.3366 5.99168C15.3058 6.03071 15.3791 5.9225 15.5834 5.80402C15.8187 5.66757 16.1937 5.54104 16.6459 5.59033L16.375 8.07561ZM18.225 5.72843L20.5636 6.6121C20.6846 6.29184 20.7657 6.14897 20.7868 6.11644C20.8381 6.03713 20.6653 6.35958 20.1686 6.58118C19.8819 6.70906 19.5202 6.78644 19.1228 6.74513C18.7356 6.70488 18.4378 6.56509 18.2441 6.4384C17.912 6.22119 17.8269 6.00757 17.9031 6.14118L20.075 4.90308L22.2469 3.66499C22.0147 3.2577 21.6214 2.67282 20.9809 2.25394C20.1925 1.73831 19.1427 1.56385 18.1314 2.015C17.3264 2.37416 16.8453 3.00378 16.5882 3.40125C16.3009 3.8455 16.0737 4.34902 15.8864 4.84477L18.225 5.72843ZM20.075 4.90308L17.9031 6.14118C18.2879 6.81625 18.8699 7.64086 19.7597 8.14931C20.2458 8.42711 20.8415 8.61912 21.5125 8.60571C22.1808 8.59234 22.7624 8.37847 23.2291 8.09312L21.925 5.96019L20.6209 3.82727C20.7793 3.73043 21.0525 3.6139 21.4125 3.6067C21.7752 3.59945 22.0625 3.70645 22.2403 3.80807C22.4006 3.89967 22.4591 3.97793 22.433 3.94757C22.4101 3.92096 22.345 3.83715 22.2469 3.66499L20.075 4.90308ZM21.925 5.96019L23.2291 8.09312C23.9543 7.64972 24.6651 7.13886 25.3623 6.56595L23.775 4.63449L22.1877 2.70302C21.6515 3.14366 21.129 3.51661 20.6209 3.82727L21.925 5.96019ZM23.775 4.63449L25.3623 6.56595C25.4067 6.52944 25.2832 6.64544 25.0025 6.67966C24.6954 6.7171 24.4635 6.6252 24.3739 6.57343L25.625 4.40898L26.8761 2.24452C26.1698 1.83632 25.3213 1.60379 24.3975 1.7164C23.5001 1.82579 22.76 2.23276 22.1877 2.70302L23.775 4.63449ZM25.625 4.40898L24.3739 6.57343C25.2164 7.06035 26.2428 7.24537 27.2897 6.92113C28.2325 6.62912 28.9186 6.0076 29.3939 5.43845L27.475 3.83598L25.5561 2.23352C25.4148 2.4028 25.4842 2.24599 25.8103 2.14497C25.9894 2.08952 26.2008 2.06646 26.4199 2.09585C26.6329 2.12443 26.788 2.19364 26.8761 2.24452L25.625 4.40898ZM27.475 3.83598L29.3939 5.43845C29.5035 5.3072 29.2398 5.69952 28.5693 5.74503C27.8399 5.79454 27.4687 5.38577 27.5051 5.4245L29.325 3.71041L31.1449 1.99632C30.5647 1.38034 29.5768 0.665139 28.2307 0.756506C26.9436 0.843871 26.0632 1.62634 25.5561 2.23352L27.475 3.83598ZM29.325 3.71041L27.5051 5.4245C27.9238 5.869 28.4214 6.56648 28.9761 7.59199L31.175 6.40257L33.3739 5.21315C32.6953 3.95856 31.9595 2.86126 31.1449 1.99632L29.325 3.71041ZM31.175 6.40257L28.9761 7.59199C29.3544 8.2915 29.8595 9.04072 30.5591 9.5883C31.3395 10.1991 32.4571 10.6099 33.7066 10.2558L33.025 7.85054L32.3434 5.44525C32.6054 5.37099 32.895 5.36462 33.168 5.43278C33.4236 5.49658 33.5812 5.60424 33.6409 5.65091C33.6973 5.69506 33.689 5.70201 33.6279 5.62159C33.569 5.54412 33.4825 5.41397 33.3739 5.21315L31.175 6.40257ZM33.025 7.85054L33.7066 10.2558C34.4354 10.0493 35.1568 9.78993 35.8706 9.48005L34.875 7.18683L33.8794 4.89362C33.3599 5.11918 32.848 5.30226 32.3434 5.44525L33.025 7.85054ZM34.875 7.18683L35.8706 9.48005C36.2193 9.32866 36.5207 9.26774 36.7885 9.26092L36.725 6.76173L36.6615 4.26254C35.696 4.28709 34.7641 4.50956 33.8794 4.89362L34.875 7.18683ZM36.725 6.76173L36.7885 9.26092C38.7397 9.21131 39.9842 7.72852 40.6811 6.63884L38.575 5.29188L36.4689 3.94492C36.3636 4.10962 36.2749 4.22767 36.2059 4.30907C36.1362 4.39122 36.0976 4.42289 36.0948 4.42511C36.0927 4.42683 36.14 4.38857 36.2392 4.34789C36.3435 4.30514 36.4882 4.26695 36.6615 4.26254L36.725 6.76173ZM38.575 5.29188L40.6811 6.63884C40.735 6.55455 40.5801 6.85114 40.1215 7.0718C39.857 7.19908 39.5116 7.28941 39.1189 7.26584C38.7321 7.24261 38.4231 7.11641 38.2118 6.98934C37.8479 6.77054 37.7441 6.53571 37.813 6.65183C37.8574 6.72658 37.9495 6.91009 38.0739 7.25416L40.425 6.4042L42.7761 5.55425C42.5921 5.04543 42.3759 4.54292 42.112 4.09854C41.8726 3.69553 41.4605 3.10843 40.7882 2.70425C39.9568 2.20438 38.9121 2.10499 37.9535 2.56625C37.1866 2.93527 36.7233 3.5471 36.4689 3.94492L38.575 5.29188ZM40.425 6.4042L38.0739 7.25416C38.4108 8.18595 38.8322 9.11765 39.4055 9.82719C39.9651 10.5196 41.2239 11.6034 42.974 11.0938L42.275 8.69348L41.576 6.29319C41.7877 6.23154 42.0243 6.20455 42.2702 6.22691C42.5136 6.24905 42.7204 6.31529 42.8817 6.39157C43.0386 6.46582 43.1456 6.54613 43.2062 6.59793C43.2372 6.62449 43.2593 6.64629 43.273 6.66061C43.2867 6.67497 43.2937 6.68357 43.2945 6.68451C43.295 6.68522 43.278 6.66402 43.246 6.6121C43.2143 6.56086 43.1732 6.48812 43.124 6.38954C43.0242 6.18977 42.9069 5.91599 42.7761 5.55425L40.425 6.4042ZM42.275 8.69348L42.974 11.0938C44.1885 10.7401 44.9183 9.78695 45.3171 9.15202C45.7696 8.43157 46.1509 7.53929 46.4878 6.56454L44.125 5.74786L41.7622 4.93118C41.4824 5.74059 41.2471 6.23133 41.0829 6.49275C41.0034 6.61941 40.9781 6.63117 41.0236 6.58836C41.0689 6.54564 41.2494 6.3883 41.576 6.29319L42.275 8.69348ZM44.125 5.74786L46.4878 6.56454C46.6151 6.19628 46.6712 6.15096 46.601 6.24639C46.5903 6.26098 45.9147 7.18106 44.6176 6.95328C44.0709 6.85728 43.7222 6.58636 43.5662 6.43928C43.4838 6.36158 43.43 6.29538 43.4006 6.25645C43.3707 6.21671 43.356 6.19174 43.3544 6.18903C43.3534 6.18725 43.3793 6.2325 43.4255 6.34698C43.4702 6.45778 43.5244 6.60939 43.5859 6.8091L45.975 6.07274L48.3641 5.33638C48.1874 4.76296 47.9664 4.17086 47.6706 3.665C47.4633 3.31058 46.809 2.2616 45.4824 2.02864C43.877 1.74671 42.8931 2.8492 42.574 3.28276C42.1954 3.79715 41.9432 4.40736 41.7622 4.93118L44.125 5.74786ZM45.975 6.07274L43.5859 6.8091C43.7615 7.37882 43.9587 7.91785 44.1876 8.39035C44.3973 8.82305 44.7253 9.39647 45.2445 9.85535C45.8391 10.3808 46.8605 10.8744 48.0735 10.5145C49.0576 10.2226 49.6262 9.50647 49.8952 9.10921L47.825 7.70762L45.7548 6.30604C45.7584 6.30075 45.8139 6.21793 45.935 6.11051C46.0573 6.00208 46.2939 5.82711 46.6515 5.72102C47.0357 5.60705 47.45 5.60623 47.8354 5.71935C48.1943 5.82471 48.4322 5.99974 48.5555 6.1087C48.7664 6.2951 48.7861 6.41406 48.6874 6.21034C48.6079 6.04641 48.4968 5.76704 48.3641 5.33638L45.975 6.07274ZM47.825 7.70762L49.8952 9.10921C50.1158 8.78336 50.2697 8.63135 50.3374 8.57573C50.3992 8.52493 50.314 8.61505 50.0863 8.65302L49.675 6.18709L49.2637 3.72116C47.6098 3.99704 46.4843 5.22859 45.7548 6.30604L47.825 7.70762ZM49.675 6.18709L50.0863 8.65302C50.4278 8.59605 50.7638 8.59657 51.1057 8.65474L51.525 6.19015L51.9443 3.72555C51.0529 3.57392 50.1555 3.5724 49.2637 3.72116L49.675 6.18709ZM51.525 6.19015L51.1057 8.65474C51.4462 8.71266 51.8214 8.83425 52.2357 9.04638L53.375 6.82107L54.5143 4.59576C53.6953 4.17646 52.8371 3.87743 51.9443 3.72555L51.525 6.19015ZM53.375 6.82107L52.2357 9.04638C52.7748 9.3224 53.4201 9.47651 54.1187 9.39742C54.8002 9.32027 55.3603 9.0411 55.785 8.72751C56.5689 8.14869 57.0925 7.30605 57.4585 6.57814L55.225 5.45505L52.9915 4.33197C52.8815 4.55073 52.7974 4.68251 52.7465 4.75182C52.6916 4.82666 52.7081 4.7841 52.815 4.7052C52.9314 4.61928 53.1831 4.4714 53.5563 4.42915C53.9465 4.38497 54.2835 4.4776 54.5143 4.59576L53.375 6.82107ZM55.225 5.45505L57.4585 6.57814C57.5527 6.39087 57.5219 6.52654 57.2916 6.71917C57.1572 6.83166 56.9106 6.9999 56.549 7.09409C56.164 7.19438 55.762 7.18028 55.3977 7.06532C55.0579 6.95811 54.8336 6.79031 54.7175 6.68676C54.6022 6.58395 54.5495 6.50564 54.5465 6.50124C54.5408 6.49294 54.5597 6.51979 54.5981 6.59835C54.6356 6.67483 54.6833 6.78336 54.7394 6.93035L57.075 6.03885L59.4106 5.14734C59.222 4.65325 58.9865 4.13797 58.6785 3.68594C58.4077 3.28836 57.8521 2.59681 56.9023 2.29709C55.7311 1.92751 54.7096 2.36029 54.0834 2.88422C53.5448 3.33479 53.2056 3.90605 52.9915 4.33197L55.225 5.45505ZM57.075 6.03885L54.7394 6.93035C54.927 7.4219 55.1964 8.01521 55.6071 8.5143C55.9981 8.98939 56.9858 9.8997 58.4658 9.61907C59.6962 9.38575 60.3428 8.45746 60.5804 8.07864C60.8875 7.58898 61.1159 7.02088 61.2966 6.47882L58.925 5.68804L56.5534 4.89726C56.4939 5.07547 56.4427 5.20803 56.4016 5.30237C56.3591 5.40002 56.3379 5.43263 56.3446 5.42193C56.3464 5.41912 56.4134 5.30924 56.5671 5.17213C56.7241 5.0321 57.0458 4.79923 57.5342 4.70661C58.7059 4.48444 59.3852 5.23665 59.4679 5.33708C59.5703 5.4615 59.5313 5.46359 59.4106 5.14734L57.075 6.03885ZM58.925 5.68804L61.2966 6.47882C61.4257 6.09174 61.529 5.8574 61.5945 5.73432C61.6811 5.57152 61.6297 5.7374 61.3619 5.94073C61.2057 6.05934 60.9406 6.21672 60.5702 6.29058C60.1815 6.36811 59.7968 6.32906 59.4647 6.20934C59.1547 6.0976 58.953 5.93921 58.8507 5.84504C58.7972 5.7958 58.7604 5.75456 58.7386 5.72836C58.7166 5.70194 58.7052 5.68532 58.7034 5.6826L60.775 4.28318L62.8466 2.88377C62.5783 2.48661 62.0508 1.82666 61.1603 1.50564C60.0549 1.10717 59.025 1.43713 58.3381 1.95874C57.762 2.39621 57.4022 2.96888 57.1805 3.38552C56.9377 3.84188 56.7326 4.35962 56.5534 4.89726L58.925 5.68804ZM60.775 4.28318L58.7034 5.6826C59.4338 6.76393 60.4874 7.91805 61.9869 8.31389L62.625 5.8967L63.2631 3.47951C63.4162 3.51994 63.4413 3.57265 63.3432 3.48715C63.2433 3.39996 63.0727 3.21838 62.8466 2.88377L60.775 4.28318ZM62.625 5.8967L61.9869 8.31389C61.8169 8.26903 61.7845 8.20756 61.8831 8.29575C61.9831 8.38525 62.1556 8.57373 62.3842 8.92253L64.475 7.55187L66.5658 6.18121C65.8453 5.08227 64.7902 3.88265 63.2631 3.47951L62.625 5.8967ZM64.475 7.55187L62.3842 8.92253C62.6436 9.31816 63.094 9.89279 63.8167 10.2553C64.6963 10.6964 65.6981 10.6805 66.5573 10.2318C67.2642 9.86263 67.7054 9.29145 67.9617 8.89523C68.2411 8.46329 68.4664 7.97658 68.6548 7.49225L66.325 6.58567L63.9952 5.67909C63.8753 5.98715 63.7923 6.13499 63.7633 6.17976C63.7113 6.26025 63.8442 6.00794 64.2427 5.79982C64.4699 5.68116 64.7777 5.5813 65.1429 5.57752C65.5089 5.57373 65.8225 5.66762 66.0583 5.78591C66.4727 5.99375 66.6147 6.2559 66.5658 6.18121L64.475 7.55187ZM66.325 6.58567L68.6548 7.49225C68.7791 7.17298 68.8818 6.96185 68.9555 6.83349C69.0369 6.69175 69.0407 6.72495 68.9359 6.8207C68.8242 6.92273 68.483 7.1874 67.9241 7.23488C67.3335 7.28506 66.896 7.06044 66.6835 6.90249L68.175 4.89611L69.6665 2.88973C69.1456 2.50258 68.3998 2.17645 67.5009 2.25283C66.6337 2.32651 65.9841 2.74507 65.5641 3.1287C64.8048 3.82214 64.3274 4.82535 63.9952 5.67909L66.325 6.58567ZM68.175 4.89611L66.6835 6.90249C66.982 7.12432 67.41 7.56626 67.9336 8.36579L70.025 6.99606L72.1164 5.62633C71.4067 4.54274 70.6014 3.58471 69.6665 2.88973L68.175 4.89611ZM70.025 6.99606L67.9336 8.36579C68.1915 8.7595 68.618 9.30161 69.2838 9.66734C70.0738 10.1013 71.0339 10.1878 71.9341 9.80234C72.69 9.47866 73.1711 8.92078 73.4496 8.52922C73.7494 8.10782 73.9864 7.63334 74.1803 7.17113L71.875 6.20386L69.5697 5.23659C69.5155 5.36569 69.4694 5.46224 69.4328 5.53148C69.3956 5.60203 69.3752 5.63112 69.3754 5.63093C69.3761 5.62991 69.3848 5.61767 69.4024 5.59724C69.4199 5.57695 69.4492 5.54492 69.4916 5.50605C69.5731 5.43137 69.7287 5.30758 69.9659 5.20602C70.2154 5.09919 70.5257 5.03042 70.8699 5.05126C71.2099 5.07185 71.4893 5.17411 71.6912 5.28501C72.0486 5.48137 72.1668 5.7034 72.1164 5.62633L70.025 6.99606ZM71.875 6.20386L74.1803 7.17113C74.4474 6.53443 74.6612 6.17339 74.7942 5.99747C74.8567 5.91482 74.8676 5.91854 74.8152 5.96003C74.76 6.00379 74.6082 6.10972 74.359 6.17505L73.725 3.75679L73.091 1.33853C71.9982 1.62504 71.2623 2.37826 70.8058 2.98217C70.3221 3.62194 69.9192 4.40359 69.5697 5.23659L71.875 6.20386ZM73.725 3.75679L74.359 6.17505C74.253 6.20285 74.1289 6.21654 73.9977 6.20655C73.8678 6.19666 73.7637 6.1661 73.6927 6.1367C73.5641 6.08339 73.5847 6.05202 73.7319 6.21268L75.575 4.5236L77.4181 2.83452C76.4796 1.8105 74.97 0.845847 73.091 1.33853L73.725 3.75679ZM75.575 4.5236L73.7319 6.21268C74.2936 6.82558 74.8631 7.50752 75.4398 8.26095L77.425 6.74141L79.4102 5.22188C78.7536 4.36401 78.0897 3.56741 77.4181 2.83452L75.575 4.5236ZM77.425 6.74141L75.4398 8.26095C75.7295 8.63938 76.1849 9.12136 76.8551 9.42525C77.6155 9.77007 78.4774 9.80212 79.2776 9.48238C79.9837 9.20026 80.4642 8.71688 80.7662 8.33856C81.081 7.94432 81.3303 7.50201 81.5333 7.07471L79.275 6.00221L77.0167 4.9297C76.9113 5.15163 76.8524 5.22703 76.8588 5.21901C76.8651 5.21102 76.9065 5.1599 76.9891 5.09172C77.0723 5.02299 77.2155 4.92197 77.4224 4.83931C77.9143 4.64277 78.4678 4.66652 78.9199 4.87153C79.1098 4.95761 79.2374 5.0555 79.3078 5.11738C79.3779 5.17913 79.4101 5.2218 79.4102 5.22188L77.425 6.74141ZM79.275 6.00221L81.5333 7.07471C81.6479 6.83325 81.7397 6.67792 81.8018 6.58691C81.8681 6.4899 81.8696 6.51185 81.7878 6.57915C81.7007 6.65078 81.4725 6.81037 81.1067 6.87642C80.7134 6.94742 80.3487 6.87612 80.0781 6.75133L81.125 4.48109L82.1719 2.21085C81.593 1.94387 80.9199 1.82931 80.2183 1.95597C79.5441 2.07769 79.0077 2.39188 78.6122 2.71703C77.876 3.32238 77.3761 4.173 77.0167 4.9297L79.275 6.00221ZM81.125 4.48109L80.0781 6.75133C80.3627 6.88258 80.7429 7.13605 81.2073 7.60041L82.975 5.83254L84.7427 4.06468C83.9738 3.29584 83.1206 2.64834 82.1719 2.21085L81.125 4.48109ZM82.975 5.83254L81.2073 7.60041C82.1431 8.53609 83.501 9.33922 85.1766 9.10118L84.825 6.62603L84.4734 4.15088C84.5536 4.13948 84.6373 4.13955 84.7174 4.15104C84.7963 4.16235 84.8536 4.1821 84.8855 4.19578C84.9423 4.22014 84.8904 4.21237 84.7427 4.06468L82.975 5.83254ZM84.825 6.62603L85.1766 9.10118C86.7833 8.87294 87.9231 7.76035 88.6862 6.72676L86.675 5.24181L84.6638 3.75686C84.4536 4.0416 84.3106 4.16891 84.2523 4.21257C84.2016 4.25045 84.2786 4.17855 84.4734 4.15088L84.825 6.62603ZM86.675 5.24181L88.6862 6.72676C88.8578 6.49438 88.7967 6.68219 88.4289 6.81147C88.2175 6.88574 87.9602 6.91894 87.6915 6.87862C87.433 6.83983 87.2529 6.74666 87.1603 6.68631L88.525 4.59167L89.8897 2.49704C89.0244 1.93325 87.9113 1.6936 86.7711 2.09428C85.7866 2.44027 85.1089 3.15404 84.6638 3.75686L86.675 5.24181ZM88.525 4.59167L87.1603 6.68631C87.656 7.00932 88.1708 7.40621 88.7032 7.88508L90.375 6.02631L92.0468 4.16754C91.3459 3.53712 90.6273 2.97759 89.8897 2.49704L88.525 4.59167ZM90.375 6.02631L88.7032 7.88508C89.3823 8.49592 90.4352 9.0504 91.7302 8.82422C92.9008 8.61975 93.696 7.86581 94.1764 7.26586L92.225 5.70318L90.2736 4.14049C90.1374 4.31061 90.3158 3.99556 90.8699 3.89879C91.1663 3.84701 91.4536 3.88228 91.6892 3.96767C91.9059 4.04619 92.0226 4.14576 92.0468 4.16754L90.375 6.02631ZM92.225 5.70318L94.1764 7.26586C94.1939 7.24403 94.0772 7.403 93.7914 7.54365C93.45 7.71172 92.9868 7.79071 92.5109 7.66485C92.094 7.55462 91.8723 7.34129 91.8264 7.29447C91.7774 7.24444 91.8077 7.26098 91.8961 7.41812L94.075 6.19239L96.2539 4.96667C95.8968 4.33193 95.1517 3.19133 93.7891 2.83101C92.049 2.37086 90.8195 3.45872 90.2736 4.14049L92.225 5.70318ZM94.075 6.19239L91.8961 7.41812C92.1262 7.82712 92.4924 8.37502 93.065 8.79235C93.733 9.27923 94.706 9.58547 95.7619 9.24765C96.6455 8.96492 97.1911 8.34783 97.4811 7.95085C97.7981 7.51696 98.0412 7.02486 98.2352 6.55604L95.925 5.60046L93.6148 4.64488C93.5004 4.92148 93.4352 5.0131 93.4438 5.00125C93.4517 4.99048 93.5063 4.91639 93.6184 4.82179C93.7318 4.72602 93.9369 4.58187 94.2381 4.48548C94.5569 4.38348 94.9144 4.358 95.2695 4.43059C95.6097 4.50014 95.8579 4.64083 96.01 4.75168C96.2743 4.94429 96.3321 5.10577 96.2539 4.96667L94.075 6.19239ZM95.925 5.60046L98.2352 6.55604C98.5064 5.90042 98.7429 5.45618 98.9302 5.17522C99.1333 4.87045 99.1874 4.89574 99.0336 4.98534L97.775 2.82526L96.5164 0.665175C95.746 1.11408 95.1833 1.78155 94.7698 2.40186C94.3405 3.04596 93.9603 3.80968 93.6148 4.64488L95.925 5.60046ZM97.775 2.82526L99.0336 4.98534C99.079 4.95885 99.046 4.9877 98.9475 4.9975C98.9011 5.00211 98.8541 5.00092 98.8107 4.99477C98.768 4.9887 98.7401 4.97941 98.7294 4.97531L99.625 2.64124L100.521 0.307167C99.1338 -0.224963 97.7273 -0.0403457 96.5164 0.665175L97.775 2.82526ZM99.625 2.64124L98.7294 4.97531C99.242 5.17201 99.7629 5.41118 100.292 5.69541L101.475 3.4929L102.658 1.29038C101.954 0.912312 101.241 0.583708 100.521 0.307167L99.625 2.64124ZM101.475 3.4929L100.292 5.69541C100.636 5.8798 101.054 6.18887 101.537 6.68348L103.325 4.93646L105.113 3.18943C104.363 2.4216 103.548 1.76829 102.658 1.29038L101.475 3.4929ZM103.325 4.93646L101.537 6.68348C102.053 7.21182 102.591 7.85601 103.149 8.62738L105.175 7.16241L107.201 5.69744C106.525 4.76332 105.83 3.92354 105.113 3.18943L103.325 4.93646ZM105.175 7.16241L103.149 8.62738C103.901 9.66654 104.939 10.714 106.357 11.1071L107.025 8.69806L107.693 6.28898C107.8 6.31852 107.8 6.34779 107.697 6.26225C107.591 6.17484 107.422 6.00331 107.201 5.69744L105.175 7.16241ZM107.025 8.69806L106.357 11.1071C108.254 11.6332 109.508 10.2989 109.979 9.6438C110.516 8.8972 110.92 7.91644 111.251 6.90447L108.875 6.12713L106.499 5.3498C106.364 5.76155 106.241 6.0816 106.133 6.32257C106.021 6.57098 105.945 6.68902 105.921 6.72338C105.884 6.77434 105.986 6.60806 106.272 6.44876C106.429 6.36155 106.645 6.27508 106.911 6.23795C107.182 6.20014 107.45 6.22155 107.693 6.28898L107.025 8.69806ZM108.875 6.12713L111.251 6.90447C111.386 6.49335 111.508 6.1757 111.616 5.93832C111.726 5.69298 111.799 5.58215 111.818 5.55584C111.85 5.51225 111.734 5.69428 111.423 5.85756C111.252 5.9469 111.023 6.02973 110.747 6.05788C110.466 6.08643 110.198 6.05232 109.962 5.97682L110.725 3.596L111.488 1.21519C109.577 0.602973 108.273 1.93308 107.782 2.60542C107.235 3.3528 106.829 4.33936 106.499 5.3498L108.875 6.12713ZM110.725 3.596L109.962 5.97682C110.064 6.00955 110.342 6.13851 110.773 6.58707L112.575 4.8539L114.377 3.12073C113.575 2.2872 112.619 1.57756 111.488 1.21519L110.725 3.596ZM112.575 4.8539L110.773 6.58707C111.675 7.5245 112.984 8.36874 114.638 8.22722L114.425 5.73633L114.212 3.24543C114.293 3.23849 114.372 3.24359 114.443 3.2574C114.512 3.27093 114.557 3.28974 114.576 3.29884C114.594 3.30734 114.584 3.3051 114.548 3.27757C114.511 3.24986 114.454 3.2008 114.377 3.12073L112.575 4.8539ZM114.425 5.73633L114.638 8.22722C116.1 8.10213 117.251 7.28477 118.1 6.37858L116.275 4.66958L114.45 2.96058C114.268 3.15561 114.148 3.23732 114.101 3.26431C114.063 3.28659 114.104 3.25463 114.212 3.24543L114.425 5.73633ZM116.275 4.66958L118.1 6.37858C118.178 6.29484 118.237 6.2434 118.274 6.21431C118.311 6.18539 118.321 6.1833 118.302 6.19268C118.282 6.20273 118.233 6.22338 118.159 6.23834C118.084 6.25363 117.999 6.25945 117.912 6.252L118.125 3.76109L118.338 1.27018C116.657 1.12642 115.342 2.00902 114.45 2.96058L116.275 4.66958ZM118.125 3.76109L117.912 6.252C119.114 6.35478 120.237 6.04167 121.228 5.4678L119.975 3.30446L118.722 1.14111C118.48 1.28157 118.37 1.27288 118.338 1.27018L118.125 3.76109ZM119.975 3.30446L121.228 5.4678C120.939 5.63493 120.491 5.76729 119.977 5.67109C119.514 5.58424 119.249 5.35741 119.174 5.28674C119.101 5.21687 119.118 5.20981 119.201 5.35251C119.278 5.48523 119.382 5.69439 119.505 6.00181L121.825 5.06914L124.145 4.13647C123.805 3.29199 123.335 2.3459 122.626 1.66877C122.243 1.30398 121.67 0.901215 120.898 0.756598C120.076 0.602628 119.319 0.795403 118.722 1.14111L119.975 3.30446ZM121.825 5.06914L119.505 6.00181C119.844 6.84425 120.317 7.79873 121.04 8.47651C121.431 8.84369 122.019 9.24599 122.809 9.3752C123.644 9.51201 124.398 9.2927 124.978 8.9383L123.675 6.80468L122.372 4.67107C122.644 4.50497 123.089 4.35456 123.616 4.44089C124.097 4.51961 124.377 4.75205 124.46 4.82997C124.541 4.90583 124.528 4.91964 124.446 4.77964C124.371 4.65012 124.268 4.44327 124.145 4.13647L121.825 5.06914ZM123.675 6.80468L124.978 8.9383C125.364 8.70238 125.683 8.59276 125.94 8.54947L125.525 6.08414L125.11 3.6188C124.134 3.78306 123.219 4.15381 122.372 4.67107L123.675 6.80468ZM125.525 6.08414L125.94 8.54947C125.784 8.57567 125.624 8.57171 125.475 8.54058C125.331 8.5104 125.233 8.4622 125.184 8.43377C125.139 8.40695 125.138 8.39811 125.177 8.43589C125.216 8.47339 125.281 8.54449 125.37 8.66368L127.375 7.17015L129.38 5.67663C128.591 4.6182 127.154 3.2749 125.11 3.6188L125.525 6.08414ZM127.375 7.17015L125.37 8.66368C125.807 9.25022 126.404 9.87505 127.212 10.2655C128.109 10.6989 129.128 10.7713 130.105 10.4041L129.225 8.06405L128.345 5.72399C128.492 5.66859 128.683 5.63074 128.896 5.64218C129.108 5.65351 129.276 5.70947 129.388 5.76347C129.579 5.85593 129.56 5.91788 129.38 5.67663L127.375 7.17015ZM129.225 8.06405L130.105 10.4041C131.43 9.90576 132.41 8.83838 133.142 7.76121L131.075 6.35565L129.008 4.9501C128.776 5.29133 128.587 5.50312 128.454 5.62639C128.32 5.74975 128.281 5.74806 128.345 5.72399L129.225 8.06405ZM131.075 6.35565L133.142 7.76121C133.684 6.96429 134.184 6.37489 134.633 5.95521L132.925 4.12963L131.217 2.30405C130.432 3.03827 129.699 3.93288 129.008 4.9501L131.075 6.35565ZM132.925 4.12963L134.633 5.95521C134.554 6.02888 134.288 6.25031 133.829 6.33262C133.323 6.42322 132.883 6.29234 132.6 6.12911C132.362 5.99182 132.278 5.8599 132.312 5.90556C132.338 5.93989 132.411 6.04981 132.52 6.27641L134.775 5.19732L137.03 4.11824C136.685 3.39773 136.105 2.37877 135.1 1.79857C134.508 1.45739 133.76 1.26517 132.946 1.41104C132.179 1.54861 131.604 1.94191 131.217 2.30405L132.925 4.12963ZM134.775 5.19732L132.52 6.27641C132.729 6.71246 133.025 7.23158 133.457 7.66996C133.897 8.11668 134.712 8.69996 135.85 8.63159C136.941 8.56601 137.665 7.93556 138.038 7.51236C138.425 7.07355 138.7 6.56474 138.903 6.11678L136.625 5.08616L134.347 4.05555C134.242 4.28901 134.208 4.29591 134.287 4.20707C134.351 4.13385 134.767 3.68765 135.55 3.64059C136.38 3.59075 136.886 4.02684 137.018 4.16063C137.142 4.28608 137.13 4.32656 137.03 4.11824L134.775 5.19732ZM136.625 5.08616L138.903 6.11678C139.009 5.88183 139.052 5.84804 139.001 5.90936C138.967 5.94895 138.637 6.33892 137.964 6.45191C137.185 6.58258 136.619 6.24214 136.39 6.0467C136.205 5.88862 136.183 5.79045 136.269 5.95245L138.475 4.77565L140.681 3.59886C140.459 3.18293 140.129 2.66427 139.635 2.2431C139.098 1.78458 138.223 1.33847 137.136 1.52089C136.155 1.68563 135.516 2.28477 135.174 2.69095C134.814 3.11886 134.549 3.60908 134.347 4.05555L136.625 5.08616ZM138.475 4.77565L136.269 5.95245C136.49 6.36651 136.804 6.85833 137.255 7.2689C137.726 7.69733 138.507 8.17018 139.538 8.11311C140.537 8.05784 141.242 7.53214 141.648 7.11821C142.054 6.70419 142.344 6.22127 142.558 5.79799L140.325 4.67325L138.092 3.5485C137.997 3.73728 137.98 3.71767 138.077 3.61822C138.175 3.51885 138.572 3.15897 139.262 3.12076C139.984 3.08076 140.457 3.42193 140.62 3.56994C140.763 3.70008 140.768 3.76272 140.681 3.59886L138.475 4.77565ZM140.325 4.67325L142.558 5.79799C142.67 5.5746 142.761 5.4279 142.824 5.33902C142.89 5.24603 142.901 5.25286 142.841 5.30229C142.778 5.35427 142.6 5.4829 142.307 5.55472C141.99 5.63225 141.662 5.61231 141.38 5.51756L142.175 3.14735L142.97 0.777134C141.648 0.333802 140.457 0.7868 139.659 1.44507C138.957 2.02397 138.461 2.81712 138.092 3.5485L140.325 4.67325ZM142.175 3.14735L141.38 5.51756C141.307 5.49316 141.335 5.48361 141.457 5.59002C141.58 5.69722 141.76 5.88881 141.986 6.20778L144.025 4.76056L146.064 3.31335C145.319 2.26473 144.318 1.22925 142.97 0.777134L142.175 3.14735ZM144.025 4.76056L141.986 6.20778C142.426 6.82747 143.282 7.78898 144.662 7.94904C146.176 8.12471 147.233 7.2372 147.78 6.59432L145.875 4.97524L143.97 3.35615C143.9 3.43878 144.341 2.87826 145.238 2.98237C145.629 3.02769 145.888 3.18679 146.003 3.2744C146.109 3.35491 146.122 3.3959 146.064 3.31335L144.025 4.76056ZM145.875 4.97524L147.78 6.59432C147.774 6.60175 147.737 6.64369 147.666 6.70022C147.595 6.75719 147.476 6.8389 147.307 6.90998C146.919 7.07337 146.447 7.10393 146.007 6.95666C145.63 6.83053 145.443 6.6304 145.42 6.60528C145.391 6.57387 145.433 6.61229 145.527 6.78515L147.725 5.5942L149.923 4.40324C149.571 3.75255 148.87 2.64222 147.593 2.21501C145.879 1.6416 144.58 2.6391 143.97 3.35615L145.875 4.97524ZM147.725 5.5942L145.527 6.78515C145.905 7.4837 146.426 8.25554 147.168 8.80168C148.027 9.43392 149.212 9.76034 150.45 9.29755L149.575 6.95574L148.7 4.61394C148.945 4.52229 149.247 4.4839 149.558 4.54031C149.853 4.59369 150.046 4.71155 150.132 4.77473C150.212 4.8337 150.218 4.85848 150.164 4.78844C150.112 4.72184 150.03 4.60039 149.923 4.40324L147.725 5.5942ZM149.575 6.95574L150.45 9.29755C150.878 9.13774 151.284 9.04399 151.674 9.00496L151.425 6.51741L151.176 4.02985C150.332 4.11435 149.506 4.31283 148.7 4.61394L149.575 6.95574ZM151.425 6.51741L151.674 9.00496C151.558 9.01658 151.445 9.00839 151.344 8.98596C151.246 8.96411 151.181 8.93362 151.153 8.91805C151.126 8.90341 151.134 8.90347 151.173 8.93797C151.213 8.97251 151.276 9.03404 151.36 9.13403L153.275 7.52669L155.19 5.91934C154.345 4.91244 152.993 3.84784 151.176 4.02985L151.425 6.51741ZM153.275 7.52669L151.36 9.13403C151.709 9.54949 152.396 10.1944 153.462 10.3126C154.612 10.4401 155.467 9.8829 155.94 9.42415C156.393 8.98522 156.699 8.45938 156.909 8.02708C157.134 7.56692 157.33 7.04588 157.506 6.49382L155.125 5.73306L152.744 4.9723C152.612 5.38542 152.499 5.66301 152.416 5.8349C152.318 6.03467 152.315 5.97433 152.46 5.83434C152.625 5.67453 153.171 5.24969 154.013 5.34303C154.77 5.42702 155.149 5.87119 155.19 5.91934L153.275 7.52669ZM155.125 5.73306L157.506 6.49382C157.567 6.30435 157.62 6.16227 157.662 6.06009C157.707 5.95429 157.73 5.91676 157.725 5.92487C157.721 5.93076 157.704 5.95824 157.672 5.99982C157.64 6.0407 157.583 6.10735 157.498 6.18436C157.335 6.33243 156.989 6.58692 156.459 6.67483C155.214 6.88138 154.551 6.02592 154.522 5.98691C154.444 5.88473 154.496 5.91724 154.621 6.26735L156.975 5.42611L159.329 4.58487C159.146 4.07211 158.889 3.47026 158.503 2.96222C158.165 2.51736 157.194 1.48454 155.641 1.74226C154.335 1.95884 153.672 2.96559 153.45 3.33121C153.147 3.83085 152.922 4.41366 152.744 4.9723L155.125 5.73306ZM156.975 5.42611L154.621 6.26735C154.803 6.77751 155.012 7.272 155.26 7.71111C155.49 8.1195 155.849 8.65372 156.4 9.06745C157.031 9.54052 157.97 9.87748 159.025 9.58764C159.929 9.33909 160.5 8.73592 160.806 8.33789L158.825 6.813L156.844 5.28811C156.859 5.26868 156.923 5.18751 157.048 5.0896C157.175 4.98965 157.392 4.85101 157.7 4.76629C158.024 4.67727 158.374 4.66929 158.709 4.74891C159.029 4.82502 159.26 4.96228 159.4 5.06682C159.643 5.24941 159.693 5.39455 159.615 5.25593C159.555 5.14803 159.455 4.93758 159.329 4.58487L156.975 5.42611ZM158.825 6.813L160.806 8.33789C160.982 8.10984 161.009 8.15491 160.844 8.23505C160.748 8.28155 160.601 8.3328 160.413 8.34793C160.222 8.36328 160.045 8.3368 159.9 8.2897L160.675 5.91275L161.45 3.5358C159.299 2.83502 157.686 4.19463 156.844 5.28811L158.825 6.813ZM160.675 5.91275L159.9 8.2897C159.899 8.28927 160.148 8.37934 160.601 8.92541L162.525 7.3291L164.449 5.73279C163.669 4.79236 162.684 3.9382 161.45 3.5358L160.675 5.91275ZM162.525 7.3291L160.601 8.92541C161.108 9.53679 162.007 10.3415 163.328 10.4062C164.694 10.4731 165.672 9.7139 166.23 9.09521L164.375 7.41967L162.52 5.74414C162.462 5.80832 162.823 5.37549 163.572 5.41218C164.276 5.44665 164.558 5.86467 164.449 5.73279L162.525 7.3291ZM164.375 7.41967L166.23 9.09521C166.287 9.03248 165.92 9.47023 165.164 9.42902C164.458 9.39058 164.18 8.96989 164.294 9.10814L166.225 7.52047L168.156 5.9328C167.653 5.32098 166.758 4.50846 165.436 4.43642C164.063 4.36161 163.08 5.12399 162.52 5.74414L164.375 7.41967ZM166.225 7.52047L164.294 9.10814C164.755 9.6689 165.386 10.2562 166.228 10.5903C167.153 10.9572 168.142 10.9404 169.049 10.557L168.075 8.2544L167.101 5.95184C167.219 5.90189 167.384 5.85801 167.58 5.85544C167.776 5.85287 167.946 5.89261 168.072 5.9427C168.297 6.03219 168.312 6.12212 168.156 5.9328L166.225 7.52047ZM168.075 8.2544L169.049 10.557C169.6 10.3239 170.148 10.12 170.692 9.94456L169.925 7.56509L169.158 5.18563C168.469 5.40769 167.783 5.66334 167.101 5.95184L168.075 8.2544ZM169.925 7.56509L170.692 9.94456C171.212 9.77679 171.728 9.64539 172.239 9.54894L171.775 7.09234L171.311 4.63573C170.589 4.77213 169.871 4.9559 169.158 5.18563L169.925 7.56509ZM171.775 7.09234L172.239 9.54894C173.172 9.37273 174.056 9.02076 174.886 8.53601L173.625 6.37735L172.364 4.21868C171.96 4.45441 171.611 4.5791 171.311 4.63573L171.775 7.09234ZM173.625 6.37735L174.886 8.53601C174.786 8.59444 174.612 8.67175 174.374 8.69915C174.13 8.7273 173.901 8.69305 173.717 8.62769C173.39 8.51213 173.337 8.35389 173.498 8.56217L175.475 7.03153L177.452 5.50089C176.996 4.91281 176.327 4.24735 175.383 3.91373C174.313 3.53513 173.241 3.70619 172.364 4.21868L173.625 6.37735ZM175.475 7.03153L173.498 8.56217C173.804 8.95658 174.351 9.5304 175.207 9.79176C176.205 10.0964 177.136 9.83689 177.807 9.38079C178.387 8.98544 178.766 8.458 179.006 8.05755C179.264 7.62819 179.479 7.14609 179.664 6.65436L177.325 5.77246L174.986 4.89056C174.863 5.2167 174.77 5.40046 174.719 5.48496C174.651 5.59837 174.721 5.43277 174.993 5.24727C175.148 5.14185 175.388 5.01719 175.708 4.95727C176.039 4.89523 176.37 4.91888 176.668 5.00981C176.952 5.09648 177.15 5.22695 177.266 5.31946C177.38 5.41045 177.439 5.48424 177.452 5.50089L175.475 7.03153ZM177.325 5.77246L179.664 6.65436C179.94 5.92384 180.176 5.45292 180.354 5.17639C180.395 5.11175 180.429 5.06527 180.453 5.0337C180.478 5.00191 180.49 4.98967 180.489 4.99138C180.487 4.99297 180.466 5.01362 180.425 5.04401C180.384 5.0746 180.316 5.1183 180.223 5.16144L179.175 2.89173L178.127 0.622024C177.183 1.05772 176.556 1.8368 176.146 2.47457C175.707 3.15828 175.327 3.98535 174.986 4.89056L177.325 5.77246ZM179.175 2.89173L180.223 5.16144C179.993 5.26777 179.677 5.33916 179.324 5.29443C178.986 5.25165 178.756 5.12092 178.646 5.04252C178.545 4.97021 178.528 4.93086 178.579 4.9974C178.627 5.05961 178.708 5.18021 178.815 5.38277L181.025 4.21441L183.235 3.04605C182.861 2.33841 182.332 1.53115 181.554 0.975152C180.617 0.305507 179.36 0.0528288 178.127 0.622024L179.175 2.89173ZM181.025 4.21441L178.815 5.38277C179.187 6.08744 179.736 6.92772 180.57 7.47996C181.025 7.78135 181.608 8.02431 182.294 8.05694C182.987 8.08992 183.605 7.89947 184.108 7.61424L182.875 5.43962L181.642 3.265C181.836 3.15464 182.146 3.04429 182.531 3.06259C182.909 3.08056 183.184 3.21408 183.33 3.31128C183.463 3.3993 183.499 3.46065 183.456 3.4058C183.417 3.35598 183.34 3.24526 183.235 3.04605L181.025 4.21441ZM182.875 5.43962L184.108 7.61424C183.898 7.73344 183.565 7.84796 183.158 7.81866C182.763 7.79024 182.487 7.6401 182.351 7.54366C182.228 7.45609 182.202 7.40179 182.254 7.4708C182.3 7.5338 182.382 7.66065 182.491 7.87788L184.725 6.75497L186.959 5.63205C186.594 4.90621 186.061 4.04623 185.249 3.46866C184.805 3.153 184.22 2.88215 183.517 2.83155C182.801 2.78008 182.16 2.97093 181.642 3.265L182.875 5.43962ZM184.725 6.75497L182.491 7.87788C182.698 8.28858 183.104 9.00214 183.852 9.47456C184.282 9.74608 184.859 9.95766 185.536 9.92596C186.203 9.89471 186.739 9.63781 187.118 9.36293C187.789 8.87631 188.163 8.19441 188.366 7.77201C188.603 7.27917 188.802 6.70946 188.976 6.11061L186.575 5.41278L184.174 4.71496C184.04 5.17682 183.931 5.45857 183.859 5.60793C183.753 5.82774 183.82 5.57878 184.182 5.31586C184.407 5.15283 184.789 4.95547 185.302 4.93144C185.824 4.90695 186.247 5.07344 186.523 5.24756C186.962 5.52518 187.06 5.83467 186.959 5.63205L184.725 6.75497ZM186.575 5.41278L188.976 6.11061C189.113 5.63877 189.238 5.28093 189.346 5.02038C189.46 4.74559 189.526 4.65165 189.52 4.65994C189.514 4.66881 189.462 4.73909 189.356 4.83026C189.248 4.92235 189.052 5.06287 188.762 5.16062C188.456 5.26399 188.106 5.29795 187.752 5.23436C187.411 5.17311 187.157 5.03822 186.996 4.92637L188.425 2.87497L189.854 0.823578C189.164 0.342993 188.191 0.0760317 187.163 0.423316C186.303 0.713738 185.768 1.31868 185.48 1.71459C184.898 2.51215 184.494 3.61498 184.174 4.71496L186.575 5.41278ZM188.425 2.87497L186.996 4.92637C187.516 5.28855 188.049 5.71484 188.595 6.21004L190.275 4.35868L191.955 2.50732C191.267 1.88333 190.567 1.32049 189.854 0.823578L188.425 2.87497ZM190.275 4.35868L188.595 6.21004C189.316 6.86432 190.467 7.43654 191.841 7.0721C193.004 6.76368 193.746 5.91574 194.177 5.29524L192.125 3.86791L190.072 2.44059C190.003 2.54046 189.988 2.5397 190.042 2.49409C190.097 2.44657 190.269 2.3163 190.559 2.23927C190.874 2.15558 191.208 2.16812 191.502 2.26247C191.769 2.3484 191.918 2.47347 191.955 2.50732L190.275 4.35868ZM192.125 3.86791L194.177 5.29524C194.167 5.31019 194.097 5.41024 193.951 5.53116C193.801 5.65522 193.525 5.83894 193.121 5.92712C192.145 6.14065 191.476 5.62755 191.282 5.4328C191.121 5.27253 191.127 5.20122 191.233 5.43721C191.323 5.63594 191.439 5.95219 191.574 6.41721L193.975 5.71925L196.376 5.02129C196.202 4.42581 196.011 3.86954 195.792 3.38374C195.59 2.93521 195.287 2.36737 194.818 1.89854C194.315 1.39523 193.338 0.761561 192.053 1.04251C190.972 1.27898 190.35 2.04154 190.072 2.44059L192.125 3.86791ZM193.975 5.71925L191.574 6.41721C191.749 7.01648 191.963 7.62261 192.245 8.13758C192.386 8.39639 192.591 8.71797 192.884 9.0163C193.173 9.31146 193.665 9.70146 194.378 9.85363C196.066 10.214 197.093 9.01275 197.397 8.58794C197.771 8.06371 198.019 7.43914 198.198 6.90185L195.825 6.11423L193.452 5.3266C193.322 5.71816 193.262 5.77375 193.328 5.68103C193.365 5.6301 193.527 5.40974 193.856 5.2145C194.24 4.98679 194.799 4.83092 195.422 4.96384C195.981 5.0831 196.319 5.37801 196.454 5.51593C196.592 5.65701 196.643 5.75917 196.63 5.7364C196.604 5.68821 196.51 5.48251 196.376 5.02129L193.975 5.71925ZM195.825 6.11423L198.198 6.90185C198.258 6.72131 198.31 6.58469 198.353 6.48523C198.397 6.38285 198.421 6.3419 198.421 6.34312C198.419 6.34531 198.406 6.36637 198.38 6.40029C198.354 6.43368 198.308 6.48917 198.238 6.55505C198.107 6.67938 197.824 6.90498 197.378 7.02076C196.889 7.14769 196.399 7.09111 195.996 6.91827C195.637 6.7642 195.43 6.55572 195.35 6.46681C195.213 6.31386 195.237 6.27173 195.355 6.56469L197.675 5.63408L199.995 4.70346C199.804 4.22763 199.52 3.62892 199.075 3.1316C198.614 2.61621 197.564 1.80682 196.122 2.18111C194.984 2.47635 194.387 3.35416 194.154 3.73544C193.858 4.22098 193.633 4.78267 193.452 5.3266L195.825 6.11423ZM197.675 5.63408L195.355 6.56469C195.697 7.41883 196.151 8.32992 196.805 9.0043C197.149 9.35971 197.655 9.75966 198.341 9.96657C199.084 10.1902 199.842 10.1278 200.512 9.84023L199.525 7.54314L198.538 5.24605C198.9 5.09089 199.35 5.04834 199.784 5.17904C200.162 5.29308 200.359 5.4875 200.395 5.52474C200.435 5.56555 200.401 5.54112 200.312 5.38465C200.228 5.23603 200.12 5.015 199.995 4.70346L197.675 5.63408ZM199.525 7.54314L200.512 9.84023C201.357 9.47706 202.159 8.983 202.918 8.38748L201.375 6.42035L199.832 4.45323C199.358 4.82504 198.926 5.07951 198.538 5.24605L199.525 7.54314ZM201.375 6.42035L202.918 8.38748C203.024 8.30393 203.043 8.31611 202.974 8.33556C202.939 8.34545 202.89 8.35438 202.832 8.356C202.774 8.35761 202.721 8.35146 202.678 8.34176L203.225 5.90243L203.772 3.4631C202.25 3.12156 200.884 3.62816 199.832 4.45323L201.375 6.42035ZM203.225 5.90243L202.678 8.34176C202.53 8.30872 202.498 8.25839 202.582 8.32583C202.67 8.39638 202.83 8.55285 203.048 8.85483L205.075 7.3921L207.102 5.92937C206.35 4.88654 205.273 3.79981 203.772 3.4631L203.225 5.90243ZM205.075 7.3921L203.048 8.85483C203.51 9.49639 204.677 10.755 206.491 10.392C207.972 10.0954 208.76 8.86192 209.106 8.24304L206.925 7.02184L204.744 5.80064C204.657 5.95614 204.634 5.95716 204.701 5.89085C204.766 5.82597 205.031 5.58489 205.509 5.48919C206.046 5.38185 206.515 5.52298 206.813 5.69935C207.059 5.84529 207.142 5.98434 207.102 5.92937L205.075 7.3921ZM206.925 7.02184L209.106 8.24304C209.188 8.09694 209.177 8.16249 209.033 8.28904C208.868 8.43331 208.424 8.73724 207.754 8.71157C207.104 8.68664 206.709 8.36745 206.59 8.25399C206.478 8.1474 206.484 8.11116 206.572 8.27513L208.775 7.09279L210.978 5.91045C210.757 5.49999 210.455 5.02997 210.035 4.63025C209.607 4.22367 208.904 3.752 207.946 3.71524C206.968 3.67774 206.216 4.1105 205.742 4.52425C205.289 4.92028 204.97 5.39596 204.744 5.80064L206.925 7.02184ZM208.775 7.09279L206.572 8.27513C206.792 8.68528 207.093 9.15319 207.51 9.55187C207.933 9.95642 208.628 10.4278 209.579 10.474C210.553 10.5214 211.31 10.0997 211.791 9.6865C212.25 9.2927 212.572 8.8177 212.8 8.4148L210.625 7.18281L208.45 5.95081C208.369 6.09234 208.384 6.02191 208.534 5.89282C208.707 5.74433 209.156 5.4475 209.821 5.4799C210.463 5.51113 210.85 5.82761 210.965 5.93744C211.074 6.04141 211.066 6.07474 210.978 5.91045L208.775 7.09279ZM210.625 7.18281L212.8 8.4148C213.42 7.32133 214.039 6.21983 214.658 5.1103L212.475 3.89201L210.292 2.67371C209.678 3.77419 209.064 4.86656 208.45 5.95081L210.625 7.18281ZM212.475 3.89201L214.658 5.1103C214.675 5.07965 214.648 5.13601 214.563 5.23042C214.483 5.31967 214.276 5.5259 213.919 5.67826C213.519 5.84882 213.034 5.90527 212.549 5.7812C212.106 5.66773 211.822 5.44508 211.689 5.32033C211.467 5.11136 211.457 4.98315 211.569 5.24243C211.658 5.44739 211.776 5.78296 211.913 6.28535L214.325 5.62787L216.737 4.97039C216.566 4.34165 216.375 3.75655 216.156 3.25129C215.96 2.80035 215.642 2.17239 215.111 1.67411C214.824 1.40469 214.386 1.09 213.788 0.93711C213.149 0.773603 212.51 0.843241 211.956 1.0796C211.006 1.48498 210.509 2.28437 210.292 2.67371L212.475 3.89201ZM214.325 5.62787L211.913 6.28535C212.232 7.45445 212.623 8.58462 213.168 9.40417C213.431 9.80087 213.923 10.4238 214.738 10.7688C215.75 11.1974 216.782 11.0058 217.55 10.5002L216.175 8.41218L214.8 6.32416C214.987 6.20095 215.275 6.06326 215.652 6.01901C216.039 5.97349 216.397 6.0416 216.687 6.16432C217.194 6.37885 217.377 6.70445 217.332 6.6371C217.317 6.61379 217.239 6.48213 217.119 6.17296C217.005 5.87715 216.876 5.48125 216.737 4.97039L214.325 5.62787ZM216.175 8.41218L217.55 10.5002C218.357 9.9687 218.905 9.17442 219.286 8.48671C219.694 7.75215 220.058 6.86722 220.392 5.88074L218.025 5.07736L215.658 4.27398C215.376 5.10468 215.123 5.68414 214.914 6.06118C214.679 6.48509 214.61 6.44963 214.8 6.32416L216.175 8.41218ZM218.025 5.07736L220.392 5.88074C220.523 5.49532 220.637 5.22401 220.726 5.04424C220.823 4.84838 220.852 4.84336 220.78 4.92068C220.715 4.9904 220.38 5.32697 219.755 5.41343C219.06 5.50965 218.546 5.22711 218.316 5.04381L219.875 3.08951L221.434 1.1352C220.896 0.705937 220.073 0.32174 219.07 0.460626C218.137 0.589755 217.493 1.11331 217.12 1.51434C216.425 2.2614 215.98 3.32294 215.658 4.27398L218.025 5.07736ZM219.875 3.08951L218.316 5.04381C218.727 5.37146 219.201 5.86068 219.726 6.56028L221.725 5.05855L223.724 3.55682C223.016 2.61493 222.257 1.79146 221.434 1.1352L219.875 3.08951ZM221.725 5.05855L219.726 6.56028C220.011 6.93862 220.454 7.41787 221.104 7.73071C221.841 8.08492 222.699 8.1505 223.517 7.84812C224.241 7.58038 224.736 7.09865 225.046 6.7205C225.368 6.32763 225.621 5.88602 225.826 5.46218L223.575 4.37477L221.324 3.28737C221.22 3.50183 221.165 3.56743 221.179 3.55069C221.181 3.54868 221.367 3.31199 221.783 3.15822C222.293 2.9698 222.842 3.01825 223.271 3.22426C223.613 3.38889 223.748 3.58886 223.724 3.55682L221.725 5.05855ZM223.575 4.37477L225.826 5.46218C225.943 5.22113 226.04 5.05403 226.113 4.94469C226.189 4.83138 226.217 4.81459 226.182 4.84579C226.148 4.87732 226.005 4.99874 225.745 5.08434C225.46 5.17827 225.132 5.19564 224.817 5.1167L225.425 2.69171L226.033 0.26671C224.667 -0.0757184 223.53 0.499255 222.818 1.14732C222.163 1.74285 221.688 2.53438 221.324 3.28737L223.575 4.37477ZM225.425 2.69171L224.817 5.1167C225.16 5.20261 225.546 5.36026 225.976 5.62209L227.275 3.48595L228.574 1.34982C227.771 0.861768 226.923 0.48992 226.033 0.26671L225.425 2.69171ZM227.275 3.48595L225.976 5.62209C225.828 5.53203 225.89 5.51457 226.099 5.8392C226.291 6.13782 226.531 6.6043 226.805 7.28566L229.125 6.35523L231.445 5.4248C231.102 4.56825 230.725 3.78756 230.301 3.12976C229.894 2.49796 229.339 1.81482 228.574 1.34982L227.275 3.48595ZM229.125 6.35523L226.805 7.28566C226.994 7.75882 227.219 8.2317 227.495 8.65321C227.751 9.0463 228.169 9.5784 228.816 9.94536C229.576 10.3767 230.52 10.4964 231.432 10.1357C232.205 9.82997 232.701 9.27772 232.988 8.88715L230.975 7.40527L228.962 5.92338C228.964 5.91954 229.006 5.8624 229.095 5.78434C229.185 5.70594 229.349 5.58288 229.593 5.48622C229.85 5.38472 230.16 5.32705 230.495 5.35594C230.826 5.38436 231.093 5.48881 231.284 5.59697C231.622 5.78893 231.732 5.99753 231.68 5.91864C231.647 5.86818 231.564 5.72059 231.445 5.4248L229.125 6.35523ZM230.975 7.40527L232.988 8.88715C233.146 8.6731 232.811 9.26836 231.916 9.27393C231.012 9.27955 230.666 8.67933 230.818 8.88447L232.825 7.39375L234.832 5.90303C234.368 5.27796 233.404 4.26456 231.884 4.27403C230.373 4.28344 229.421 5.29956 228.962 5.92338L230.975 7.40527ZM232.825 7.39375L230.818 8.88447C231.101 9.26504 231.546 9.75372 232.207 10.0703C232.96 10.4311 233.831 10.4868 234.653 10.1682C235.376 9.88822 235.864 9.39608 236.167 9.01576C236.484 8.6186 236.734 8.17251 236.936 7.74273L234.675 6.67676L232.414 5.61078C232.308 5.8351 232.249 5.90946 232.258 5.89909C232.265 5.88981 232.309 5.83603 232.395 5.76521C232.482 5.69375 232.631 5.58952 232.847 5.5061C233.36 5.307 233.924 5.34855 234.368 5.56155C234.72 5.73033 234.858 5.93756 234.832 5.90303L232.825 7.39375ZM234.675 6.67676L236.936 7.74273C237.056 7.48937 237.159 7.30527 237.241 7.17702C237.326 7.04538 237.369 7.00271 237.361 7.01047C237.355 7.01694 237.254 7.11679 237.047 7.20549C236.819 7.30326 236.518 7.36189 236.189 7.31724L236.525 4.83992L236.861 2.3626C235.507 2.17901 234.466 2.83898 233.839 3.46233C233.231 4.06512 232.775 4.8443 232.414 5.61078L234.675 6.67676ZM236.525 4.83992L236.189 7.31724C238.263 7.59857 239.668 6.15775 240.419 5.09279L238.375 3.65272L236.331 2.21266C236.237 2.34598 236.165 2.42986 236.118 2.47807C236.071 2.5268 236.063 2.52526 236.1 2.50182C236.139 2.4769 236.231 2.42544 236.374 2.38916C236.523 2.35148 236.691 2.33956 236.861 2.3626L236.525 4.83992ZM238.375 3.65272L240.419 5.09279C240.418 5.09319 240.377 5.15238 240.286 5.23483C240.196 5.31734 240.022 5.45262 239.759 5.55707C239.48 5.6676 239.143 5.72547 238.783 5.68401C238.431 5.64356 238.157 5.5203 237.973 5.40472C237.65 5.20286 237.559 5.00065 237.625 5.1086C237.67 5.1827 237.761 5.35978 237.884 5.68801L240.225 4.81176L242.566 3.93551C242.381 3.43984 242.164 2.95071 241.9 2.51627C241.657 2.11569 241.258 1.56263 240.627 1.16759C239.875 0.69622 238.89 0.523147 237.916 0.908766C237.111 1.22811 236.609 1.81822 236.331 2.21266L238.375 3.65272ZM240.225 4.81176L237.884 5.68801C238.198 6.52761 238.702 7.66813 239.609 8.37839C240.164 8.81239 241.004 9.1844 242.013 9.02059C242.939 8.87023 243.569 8.33503 243.93 7.93502L242.075 6.25932L240.22 4.58362C240.273 4.52499 240.594 4.1855 241.212 4.0852C241.913 3.97145 242.444 4.24786 242.691 4.44059C242.89 4.59664 242.926 4.70669 242.851 4.57652C242.789 4.46949 242.691 4.26763 242.566 3.93551L240.225 4.81176ZM242.075 6.25932L243.93 7.93502C243.912 7.9555 243.732 8.15381 243.361 8.28309C242.926 8.43475 242.451 8.41316 242.053 8.25023C241.718 8.11304 241.566 7.92965 241.564 7.92748C241.554 7.91641 241.607 7.97809 241.706 8.16875L243.925 7.01672L246.144 5.86469C245.796 5.19411 245.138 4.11038 243.947 3.623C243.241 3.33383 242.457 3.30291 241.714 3.56214C241.035 3.79899 240.547 4.22178 240.22 4.58362L242.075 6.25932ZM243.925 7.01672L241.706 8.16875C241.915 8.57151 242.348 9.31253 243.159 9.76988C243.63 10.0354 244.234 10.2062 244.908 10.1275C245.56 10.0516 246.064 9.76813 246.409 9.49329C247.028 8.99966 247.381 8.33752 247.581 7.90563C247.811 7.40875 248.007 6.83391 248.18 6.22453L245.775 5.54148L243.37 4.85844C243.235 5.33464 243.122 5.63546 243.044 5.80431C242.936 6.03814 242.981 5.83181 243.291 5.58404C243.482 5.43213 243.832 5.21914 244.329 5.16116C244.85 5.10048 245.3 5.23675 245.616 5.41529C245.901 5.57624 246.056 5.75603 246.105 5.8179C246.161 5.88692 246.17 5.91505 246.144 5.86469L243.925 7.01672ZM245.775 5.54148L248.18 6.22453C248.317 5.74274 248.439 5.3933 248.54 5.1534C248.652 4.88939 248.694 4.86391 248.628 4.94449C248.586 4.99515 248.156 5.50752 247.304 5.55572C246.399 5.60685 245.878 5.09509 245.776 4.98376L247.625 3.30059L249.473 1.61743C249.064 1.16748 248.234 0.495121 247.021 0.563688C245.861 0.629316 245.122 1.33715 244.772 1.76129C244.099 2.5769 243.68 3.76825 243.37 4.85844L245.775 5.54148ZM247.625 3.30059L245.776 4.98376C246.317 5.57753 246.872 6.26913 247.44 7.0647L249.475 5.61203L251.51 4.15936C250.844 3.22749 250.166 2.37813 249.473 1.61743L247.625 3.30059ZM249.475 5.61203L247.44 7.0647C247.873 7.67043 248.497 8.35504 249.382 8.74939C250.399 9.20274 251.498 9.15399 252.459 8.6647L251.325 6.43676L250.191 4.20881C250.324 4.14094 250.528 4.07111 250.783 4.06303C251.041 4.05489 251.26 4.11239 251.418 4.18262C251.686 4.30207 251.694 4.41736 251.51 4.15936L249.475 5.61203ZM251.325 6.43676L252.459 8.6647C252.936 8.42212 253.393 8.24591 253.831 8.12664L253.175 5.71429L252.519 3.30194C251.724 3.51814 250.948 3.82357 250.191 4.20881L251.325 6.43676ZM253.175 5.71429L253.831 8.12664C253.737 8.15227 253.624 8.16679 253.503 8.16024C253.382 8.15373 253.283 8.12808 253.212 8.10123C253.082 8.0516 253.093 8.01624 253.23 8.15699L255.025 6.41712L256.82 4.67725C255.847 3.67305 254.341 2.80633 252.519 3.30194L253.175 5.71429ZM255.025 6.41712L253.23 8.15699C253.59 8.52848 254.146 8.96373 254.919 9.14421C255.757 9.34002 256.549 9.166 257.179 8.81013C258.225 8.21947 258.809 7.14674 259.144 6.42239L256.875 5.37252L254.606 4.32265C254.496 4.56076 254.422 4.67462 254.397 4.7085C254.362 4.75639 254.456 4.60571 254.721 4.45625C255.043 4.27447 255.526 4.15149 256.056 4.27528C256.52 4.38374 256.769 4.6239 256.82 4.67725L255.025 6.41712ZM256.875 5.37252L259.144 6.42239C259.404 5.86131 259.608 5.549 259.73 5.39996C259.787 5.33062 259.797 5.33282 259.752 5.36662C259.704 5.40243 259.577 5.48472 259.374 5.53946L258.725 3.12504L258.076 0.710619C257.066 0.982138 256.347 1.64218 255.87 2.22231C255.376 2.82244 254.963 3.55105 254.606 4.32265L256.875 5.37252ZM258.725 3.12504L259.374 5.53946C259.254 5.57167 259.114 5.5867 258.967 5.57366C258.821 5.56078 258.707 5.52397 258.632 5.49028C258.497 5.43037 258.523 5.39886 258.681 5.58201L260.575 3.95021L262.469 2.31841C261.565 1.26962 260.035 0.184518 258.076 0.710619L258.725 3.12504ZM260.575 3.95021L258.681 5.58201C259.491 6.52209 260.583 7.40212 261.998 7.64753L262.425 5.18433L262.852 2.72113C262.945 2.73713 262.959 2.76335 262.887 2.71583C262.811 2.66472 262.668 2.54924 262.469 2.31841L260.575 3.95021ZM262.425 5.18433L261.998 7.64753C264.141 8.01945 265.587 6.50591 266.329 5.4356L264.275 4.01096L262.221 2.58632C262.127 2.72147 262.056 2.8044 262.012 2.85011C261.967 2.89643 261.965 2.88914 262.011 2.86006C262.06 2.82919 262.166 2.77195 262.326 2.73499C262.493 2.69661 262.675 2.69032 262.852 2.72113L262.425 5.18433ZM264.275 4.01096L266.329 5.4356C266.328 5.43756 266.318 5.45202 266.298 5.47544C266.278 5.4987 266.245 5.53524 266.197 5.57919C266.106 5.66344 265.928 5.80386 265.656 5.91127C265.367 6.02531 265.02 6.0824 264.65 6.03495C264.291 5.98884 264.016 5.85771 263.835 5.73982C263.521 5.53514 263.437 5.33731 263.508 5.45734C263.558 5.54154 263.652 5.73095 263.776 6.07249L266.125 5.21698L268.474 4.36146C268.29 3.85638 268.076 3.36057 267.817 2.92096C267.579 2.51717 267.188 1.95694 266.565 1.55125C265.819 1.06493 264.819 0.86612 263.819 1.261C262.999 1.58503 262.495 2.1908 262.221 2.58632L264.275 4.01096ZM266.125 5.21698L263.776 6.07249C264.114 7.00204 264.529 7.91318 265.078 8.61721C265.589 9.27187 266.727 10.3552 268.418 10.0507L267.975 7.59029L267.532 5.12986C268.013 5.04331 268.437 5.15942 268.72 5.31518C268.959 5.44742 269.049 5.57888 269.022 5.54328C269.002 5.51734 268.932 5.41883 268.827 5.20611C268.724 4.99916 268.605 4.72171 268.474 4.36146L266.125 5.21698ZM267.975 7.59029L268.418 10.0507C269.476 9.86025 270.246 9.23508 270.757 8.6673C271.279 8.08838 271.706 7.37859 272.07 6.63789L269.825 5.53726L267.58 4.43663C267.327 4.95358 267.138 5.21479 267.043 5.32022C266.938 5.43678 267.091 5.2093 267.532 5.12986L267.975 7.59029ZM269.825 5.53726L272.07 6.63789C272.632 5.49161 273.044 5.03683 273.205 4.9117L271.675 2.93477L270.145 0.957831C269.073 1.78739 268.252 3.06761 267.58 4.43663L269.825 5.53726ZM271.675 2.93477L273.205 4.9117C273.156 4.95001 272.866 5.14074 272.407 5.10513C271.979 5.07197 271.781 4.86985 271.823 4.90967L273.525 3.07816L275.227 1.24665C274.653 0.713529 273.838 0.20104 272.793 0.120083C271.717 0.0366788 270.811 0.442183 270.145 0.957831L271.675 2.93477ZM273.525 3.07816L271.823 4.90967C272.59 5.62187 273.424 6.21737 274.332 6.63422L275.375 4.36202L276.418 2.08981C276.093 1.94073 275.693 1.68032 275.227 1.24665L273.525 3.07816ZM275.375 4.36202L274.332 6.63422C274.449 6.6876 274.77 6.89249 275.249 7.51131L277.225 5.97937L279.201 4.44743C278.447 3.47572 277.535 2.60237 276.418 2.08981L275.375 4.36202ZM277.225 5.97937L275.249 7.51131C276.02 8.50538 277.052 9.46352 278.414 9.83694L279.075 7.42596L279.736 5.01499C279.81 5.03525 279.794 5.04973 279.69 4.96808C279.583 4.88439 279.416 4.72565 279.201 4.44743L277.225 5.97937ZM279.075 7.42596L278.414 9.83694C279.762 10.2066 281.07 9.95084 282.192 9.29059L280.925 7.13564L279.658 4.98069C279.618 5.00371 279.596 5.01277 279.59 5.01506C279.584 5.01715 279.592 5.0136 279.612 5.01045C279.633 5.00723 279.658 5.00571 279.684 5.00724C279.71 5.00876 279.728 5.01277 279.736 5.01499L279.075 7.42596ZM280.925 7.13564L282.192 9.29059C282.958 8.84038 283.698 8.29799 284.414 7.67597L282.775 5.78837L281.136 3.90076C280.619 4.34975 280.125 4.70554 279.658 4.98069L280.925 7.13564ZM282.775 5.78837L284.414 7.67597C284.398 7.68993 284.101 7.93074 283.581 7.90595C283.085 7.88231 282.849 7.63739 282.89 7.67667L284.625 5.87654L286.36 4.07642C285.784 3.52141 284.932 2.96465 283.819 2.91162C282.682 2.85743 281.769 3.3513 281.136 3.90076L282.775 5.78837ZM284.625 5.87654L282.89 7.67667C283.828 8.58089 285.146 9.32914 286.754 9.14845L286.475 6.66407L286.196 4.1797C286.265 4.17197 286.335 4.17378 286.399 4.18395C286.463 4.19396 286.508 4.20969 286.529 4.21889C286.567 4.23494 286.507 4.2183 286.36 4.07642L284.625 5.87654ZM286.475 6.66407L286.754 9.14845C287.816 9.02911 288.62 8.46506 289.169 7.91489C289.719 7.36433 290.163 6.68201 290.535 5.97916L288.325 4.81065L286.115 3.64213C285.997 3.86435 285.894 4.03434 285.806 4.16098C285.717 4.28902 285.657 4.35601 285.631 4.38264C285.563 4.45027 285.75 4.22976 286.196 4.1797L286.475 6.66407ZM288.325 4.81065L290.535 5.97916C290.623 5.81319 290.568 5.98966 290.287 6.20003C290.123 6.32339 289.845 6.48431 289.459 6.55333C289.056 6.62563 288.665 6.57298 288.338 6.44484C288.034 6.32577 287.841 6.16486 287.748 6.07487C287.698 6.02723 287.665 5.98825 287.646 5.96478C287.636 5.95265 287.629 5.9433 287.625 5.93729C287.621 5.93127 287.619 5.92801 287.618 5.92793C287.618 5.92783 287.62 5.9304 287.623 5.93597C287.627 5.94152 287.631 5.94963 287.637 5.96055C287.65 5.98268 287.666 6.01401 287.686 6.05593C287.726 6.14098 287.776 6.25736 287.833 6.41079L290.175 5.53532L292.517 4.65985C292.33 4.15969 292.1 3.64715 291.806 3.19649C291.548 2.79941 291.036 2.13175 290.162 1.78927C289.057 1.35659 288.001 1.6647 287.288 2.1997C286.699 2.64128 286.335 3.22493 286.115 3.64213L288.325 4.81065ZM290.175 5.53532L287.833 6.41079C288.021 6.91247 288.266 7.45973 288.606 7.93323C288.896 8.33755 289.599 9.17 290.816 9.3091C292.164 9.46303 293.064 8.67165 293.46 8.2095C293.87 7.73113 294.146 7.16625 294.339 6.69262L292.025 5.74666L289.711 4.80071C289.596 5.08136 289.563 5.07339 289.665 4.95455C289.753 4.85194 290.345 4.2227 291.384 4.34141C291.847 4.39429 292.181 4.58349 292.374 4.72902C292.558 4.86743 292.649 4.99203 292.669 5.01948C292.7 5.063 292.637 4.98291 292.517 4.65985L290.175 5.53532ZM292.025 5.74666L294.339 6.69262C294.455 6.40807 294.531 6.2866 294.546 6.265C294.583 6.21095 294.421 6.48351 293.983 6.68216C293.737 6.79382 293.423 6.87142 293.07 6.85567C292.72 6.84006 292.43 6.73739 292.22 6.6233C291.849 6.4221 291.727 6.19 291.779 6.26956L293.875 4.90748L295.971 3.54539C295.715 3.1504 295.284 2.59735 294.605 2.22881C293.792 1.78737 292.814 1.72178 291.917 2.12873C291.171 2.46724 290.701 3.03326 290.429 3.4263C290.136 3.85177 289.903 4.33098 289.711 4.80071L292.025 5.74666ZM293.875 4.90748L291.779 6.26956C292.169 6.86989 293.364 8.40434 295.354 7.952C296.194 7.76119 296.772 7.265 297.12 6.87773C297.478 6.48018 297.749 6.02721 297.96 5.60782L295.725 4.48697L293.49 3.36612C293.392 3.56144 293.355 3.58704 293.405 3.5319C293.445 3.48704 293.715 3.19709 294.246 3.07637C294.865 2.9357 295.397 3.12047 295.709 3.32461C295.957 3.48741 296.028 3.63205 295.971 3.54539L293.875 4.90748ZM295.725 4.48697L297.96 5.60782C298.061 5.4065 298.114 5.34497 298.1 5.36095C298.096 5.36548 297.924 5.57733 297.543 5.72278C297.085 5.89819 296.57 5.8822 296.139 5.69979C295.954 5.62184 295.827 5.53097 295.752 5.4694C295.678 5.40824 295.641 5.36341 295.636 5.35736L297.575 3.77903L299.514 2.20069C299.212 1.82972 298.749 1.375 298.086 1.09458C297.346 0.781794 296.523 0.759611 295.757 1.05301C295.068 1.31645 294.587 1.77047 294.275 2.14137C293.953 2.5237 293.698 2.95271 293.49 3.36612L295.725 4.48697ZM297.575 3.77903L295.636 5.35736C296.297 6.16963 296.967 6.921 297.645 7.60866L299.425 5.85329L301.205 4.09792C300.65 3.53488 300.086 2.9034 299.514 2.20069L297.575 3.77903ZM299.425 5.85329L297.645 7.60866C298.308 8.28125 299.475 9.00028 300.951 8.63423C302.187 8.32809 302.944 7.40199 303.359 6.7752L301.275 5.39473L299.191 4.01425C299.118 4.12411 299.103 4.12133 299.162 4.06926C299.224 4.01531 299.417 3.86318 299.749 3.7811C300.111 3.69124 300.479 3.72565 300.782 3.84185C301.052 3.94518 301.187 4.07992 301.205 4.09792L299.425 5.85329ZM301.275 5.39473L303.359 6.7752C303.872 6.00092 304.237 5.69876 304.396 5.60521L303.125 3.45221L301.854 1.29921C300.78 1.93356 299.911 2.92641 299.191 4.01425L301.275 5.39473ZM303.125 3.45221L304.396 5.60521C304.38 5.61426 304.252 5.68103 304.043 5.68047C303.835 5.67992 303.709 5.61269 303.696 5.6051L304.975 3.45715L306.254 1.3092C305.625 0.934371 304.882 0.682698 304.057 0.680492C303.231 0.678286 302.486 0.92621 301.854 1.29921L303.125 3.45221ZM304.975 3.45715L303.696 5.6051C304.6 6.14383 305.601 6.49463 306.677 6.55862L306.825 4.06303L306.973 1.56744C306.816 1.55809 306.583 1.50497 306.254 1.3092L304.975 3.45715ZM306.825 4.06303L306.677 6.55862C306.546 6.55085 306.439 6.52173 306.364 6.49195C306.292 6.46341 306.261 6.4389 306.269 6.44471C306.278 6.45103 306.317 6.48163 306.383 6.5531C306.45 6.6242 306.534 6.72654 306.635 6.86884L308.675 5.42341L310.715 3.97798C309.967 2.92236 308.753 1.67329 306.973 1.56744L306.825 4.06303ZM308.675 5.42341L306.635 6.86884C306.91 7.25622 307.359 7.77701 308.044 8.11039C308.843 8.49919 309.764 8.5311 310.604 8.16301C311.323 7.8475 311.794 7.32245 312.078 6.9355C312.38 6.52462 312.619 6.06329 312.816 5.61366L310.525 4.61243L308.234 3.61119C308.181 3.73245 308.136 3.82268 308.101 3.88699C308.065 3.95243 308.046 3.97896 308.047 3.97799C308.048 3.97667 308.056 3.96502 308.073 3.94581C308.09 3.92669 308.118 3.89698 308.158 3.86098C308.235 3.79149 308.379 3.67883 308.596 3.58368C308.823 3.48425 309.108 3.41427 309.429 3.42198C309.748 3.42966 310.022 3.51235 310.231 3.61409C310.608 3.79748 310.749 4.02572 310.715 3.97798L308.675 5.42341ZM310.525 4.61243L312.816 5.61366C312.931 5.35035 313.015 5.20762 313.056 5.14715C313.107 5.07146 313.043 5.19449 312.823 5.33907C312.558 5.51348 312.093 5.69387 311.523 5.60405C311.006 5.52254 310.711 5.26543 310.632 5.18788L312.375 3.39604L314.118 1.60419C313.73 1.22666 313.127 0.795232 312.302 0.665098C311.424 0.526645 310.65 0.78409 310.077 1.16124C309.115 1.7937 308.566 2.85119 308.234 3.61119L310.525 4.61243ZM312.375 3.39604L310.632 5.18788C311.378 5.91375 312.177 6.53102 313.037 6.99526L314.225 4.79547L315.413 2.59568C315.039 2.39396 314.606 2.07827 314.118 1.60419L312.375 3.39604ZM314.225 4.79547L313.037 6.99526C313.747 7.37834 314.466 7.7086 315.194 7.98288L316.075 5.64328L316.956 3.30367C316.451 3.11351 315.937 2.87856 315.413 2.59568L314.225 4.79547ZM316.075 5.64328L315.194 7.98288C316.283 8.39309 317.383 8.22322 318.279 7.69052C319.064 7.22307 319.626 6.52373 320.032 5.88726L317.925 4.54228L315.818 3.19729C315.724 3.34436 315.658 3.42348 315.627 3.4569C315.595 3.49178 315.623 3.45233 315.721 3.39386C315.827 3.33108 316.013 3.24757 316.266 3.21988C316.526 3.19143 316.766 3.23219 316.956 3.30367L316.075 5.64328ZM317.925 4.54228L320.032 5.88726C320.099 5.78322 320.077 5.84915 319.935 5.96086C319.775 6.08696 319.409 6.30756 318.875 6.31288C318.337 6.31823 317.961 6.10254 317.789 5.97069C317.639 5.85493 317.611 5.78204 317.676 5.88108L319.775 4.52385L321.875 3.16663C321.482 2.56012 320.513 1.29632 318.825 1.31313C317.154 1.32977 316.204 2.5918 315.818 3.19729L317.925 4.54228ZM319.775 4.52385L317.676 5.88108C318.327 6.88909 318.986 7.82246 319.654 8.67817L321.625 7.14033L323.596 5.60249C323.03 4.87745 322.456 4.0665 321.875 3.16663L319.775 4.52385ZM321.625 7.14033L319.654 8.67817C319.959 9.06972 320.493 9.62286 321.316 9.88982C322.273 10.1998 323.194 9.99146 323.887 9.55238C324.488 9.17234 324.881 8.65176 325.129 8.2565C325.395 7.83418 325.614 7.36086 325.802 6.88213L323.475 5.96884L321.148 5.05556C321.027 5.36251 320.939 5.52726 320.896 5.59541C320.836 5.69062 320.921 5.5129 321.213 5.3281C321.377 5.22382 321.621 5.10939 321.937 5.06064C322.261 5.01052 322.579 5.04288 322.859 5.13358C323.126 5.2202 323.312 5.34448 323.422 5.43202C323.529 5.51829 323.584 5.58736 323.596 5.60249L321.625 7.14033ZM323.475 5.96884L325.802 6.88213C325.925 6.56909 326.024 6.37191 326.09 6.26073C326.165 6.13345 326.148 6.20147 326.002 6.32349C325.835 6.4626 325.421 6.72921 324.808 6.71571C324.203 6.70242 323.815 6.42596 323.675 6.30258L325.325 4.4246L326.975 2.54663C326.526 2.1523 325.83 1.73699 324.917 1.71692C323.995 1.69664 323.273 2.08854 322.798 2.48502C321.97 3.17576 321.476 4.2204 321.148 5.05556L323.475 5.96884ZM325.325 4.4246L323.675 6.30258C324.074 6.65368 324.551 7.20336 325.086 8.01788L327.175 6.64474L329.264 5.27159C328.566 4.20968 327.809 3.27928 326.975 2.54663L325.325 4.4246ZM327.175 6.64474L325.086 8.01788C325.5 8.64859 326.203 9.50791 327.317 9.87515C328.677 10.3237 329.879 9.81939 330.657 9.14854L329.025 7.25483L327.393 5.36111C327.448 5.31325 327.623 5.17876 327.92 5.0997C328.243 5.01357 328.585 5.02831 328.883 5.12669C329.154 5.2159 329.301 5.34397 329.336 5.37591C329.37 5.40779 329.342 5.38977 329.264 5.27159L327.175 6.64474ZM329.025 7.25483L330.657 9.14854C331.496 8.42558 332.257 7.50413 332.956 6.45224L330.875 5.06738L328.794 3.68251C328.26 4.48425 327.787 5.02111 327.393 5.36111L329.025 7.25483ZM330.875 5.06738L332.956 6.45224C333.029 6.34303 333.045 6.34453 332.987 6.39491C332.928 6.44707 332.739 6.5957 332.415 6.67791C332.061 6.76789 331.698 6.73869 331.394 6.62601C331.122 6.52542 330.983 6.39119 330.962 6.36972L332.725 4.59758L334.488 2.82544C333.813 2.15367 332.646 1.46076 331.185 1.83173C329.964 2.14181 329.21 3.05599 328.794 3.68251L330.875 5.06738ZM332.725 4.59758L330.962 6.36972C331.488 6.89338 332.212 7.40971 333.148 7.60167C334.142 7.80563 335.073 7.58185 335.837 7.13534L334.575 4.97717L333.313 2.819C333.372 2.78475 333.484 2.73082 333.646 2.70009C333.813 2.66839 333.988 2.67003 334.152 2.70371C334.471 2.76915 334.579 2.9154 334.488 2.82544L332.725 4.59758ZM334.575 4.97717L335.837 7.13534C335.723 7.20208 335.527 7.28691 335.263 7.3108C334.993 7.33525 334.751 7.28677 334.565 7.21177C334.246 7.08333 334.214 6.9312 334.395 7.18245L336.425 5.72355L338.455 4.26464C338.019 3.65775 337.37 2.95215 336.435 2.57492C335.35 2.13699 334.232 2.28159 333.313 2.819L334.575 4.97717ZM336.425 5.72355L334.395 7.18245C335.043 8.08375 335.695 8.93061 336.352 9.72168L338.275 8.12377L340.198 6.52586C339.622 5.83293 339.041 5.07964 338.455 4.26464L336.425 5.72355ZM338.275 8.12377L336.352 9.72168C336.871 10.3456 337.837 11.2014 339.257 11.1691C340.652 11.1374 341.58 10.2642 342.076 9.64448L340.125 8.08175L338.174 6.51901C338.053 6.66936 338.365 6.1881 339.143 6.17042C339.946 6.15218 340.296 6.644 340.198 6.52586L338.275 8.12377ZM340.125 8.08175L342.076 9.64448C342.541 9.06387 342.814 8.93869 342.845 8.92731L341.975 6.58347L341.105 4.23964C339.903 4.68591 338.942 5.55958 338.174 6.51901L340.125 8.08175ZM341.975 6.58347L342.845 8.92731C344.167 8.4368 345.148 7.38333 345.884 6.31509L343.825 4.89711L341.766 3.47912C341.535 3.81427 341.348 4.02194 341.216 4.14268C341.083 4.26332 341.044 4.26241 341.105 4.23964L341.975 6.58347ZM343.825 4.89711L345.884 6.31509C345.928 6.25082 345.832 6.42109 345.543 6.58866C345.179 6.80036 344.632 6.92843 344.053 6.76073C343.571 6.62082 343.34 6.35157 343.318 6.32674C343.285 6.28877 343.331 6.33292 343.432 6.53759L345.675 5.43381L347.918 4.33003C347.711 3.90809 347.448 3.45992 347.107 3.06393C346.777 2.68107 346.237 2.18807 345.447 1.95872C343.475 1.38676 342.205 2.84144 341.766 3.47912L343.825 4.89711ZM345.675 5.43381L343.432 6.53759C344.091 7.87702 344.984 9.27042 346.289 10.0128L347.525 7.8399L348.761 5.66696C348.838 5.71041 348.767 5.69236 348.582 5.4514C348.404 5.22025 348.179 4.8599 347.918 4.33003L345.675 5.43381ZM347.525 7.8399L346.289 10.0128C347.121 10.4866 348.13 10.6686 349.161 10.3625C350.098 10.0845 350.788 9.48236 351.27 8.92127L349.375 7.29091L347.48 5.66054C347.346 5.8163 347.419 5.66408 347.739 5.56909C347.913 5.51748 348.116 5.49734 348.325 5.52578C348.528 5.55345 348.676 5.61871 348.761 5.66696L347.525 7.8399ZM349.375 7.29091L351.27 8.92127C351.711 8.4088 351.94 8.34594 351.915 8.35302L351.225 5.95008L350.535 3.54715C349.277 3.90831 348.272 4.73932 347.48 5.66054L349.375 7.29091ZM351.225 5.95008L351.915 8.35302C351.777 8.39264 351.614 8.41119 351.444 8.39444C351.275 8.37796 351.145 8.33193 351.062 8.29178C350.918 8.22211 350.95 8.18891 351.121 8.40308L353.075 6.84397L355.029 5.28486C354.172 4.20981 352.607 2.95225 350.535 3.54715L351.225 5.95008ZM353.075 6.84397L351.121 8.40308C351.866 9.33718 352.723 10.1546 353.722 10.7027L354.925 8.51117L356.128 6.31963C355.893 6.19076 355.517 5.89668 355.029 5.28486L353.075 6.84397ZM354.925 8.51117L353.722 10.7027C354.553 11.1587 355.545 11.3245 356.555 11.0277C357.478 10.7565 358.165 10.1725 358.652 9.61888L356.775 7.96753L354.898 6.31618C354.768 6.4635 354.839 6.32057 355.145 6.23055C355.311 6.18194 355.504 6.1622 355.704 6.18769C355.899 6.21257 356.043 6.27309 356.128 6.31963L354.925 8.51117ZM356.775 7.96753L358.652 9.61888C359.543 8.60586 360.286 7.19276 360.941 5.58027L358.625 4.6393L356.309 3.69833C355.731 5.12162 355.24 5.92733 354.898 6.31618L356.775 7.96753ZM358.625 4.6393L360.941 5.58027C361.06 5.28901 361.144 5.13773 361.182 5.07999C361.236 4.99778 361.144 5.1762 360.849 5.35586C360.464 5.58953 359.872 5.73209 359.253 5.53473C358.754 5.37553 358.529 5.08453 358.526 5.07972L360.475 3.51453L362.424 1.94935C362.112 1.56052 361.58 1.02836 360.772 0.770881C359.844 0.475244 358.944 0.662391 358.251 1.08352C357.647 1.45065 357.248 1.9594 356.993 2.35039C356.722 2.76586 356.499 3.23065 356.309 3.69833L358.625 4.6393ZM360.475 3.51453L358.526 5.07972C359.304 6.04886 360.321 6.95803 361.636 7.335L362.325 4.93188L363.014 2.52876C363.063 2.54271 363.031 2.54534 362.92 2.46038C362.807 2.37364 362.639 2.21646 362.424 1.94935L360.475 3.51453ZM362.325 4.93188L361.636 7.335C363.365 7.83107 364.859 7.11555 365.886 6.15225L364.175 4.32919L362.464 2.50612C362.346 2.61751 362.346 2.5791 362.476 2.53681C362.544 2.51459 362.634 2.49622 362.739 2.49417C362.844 2.49212 362.938 2.50698 363.014 2.52876L362.325 4.93188ZM364.175 4.32919L365.886 6.15225C366.371 5.69717 366.804 5.392 367.181 5.19556L366.025 2.97885L364.869 0.762132C364.012 1.20883 363.213 1.80389 362.464 2.50612L364.175 4.32919ZM366.025 2.97885L367.181 5.19556C366.841 5.37294 366.362 5.46838 365.86 5.33816C365.423 5.22475 365.192 4.99785 365.148 4.95135C365.099 4.90051 365.131 4.91906 365.221 5.08378C365.306 5.23887 365.415 5.47118 365.541 5.80013L367.875 4.90327L370.209 4.0064C369.871 3.12867 369.419 2.17947 368.752 1.4862C368.399 1.11896 367.861 0.691709 367.115 0.49832C366.305 0.28813 365.518 0.42397 364.869 0.762132L366.025 2.97885ZM367.875 4.90327L365.541 5.80013C365.885 6.69409 366.284 7.53253 366.77 8.20902C367.213 8.82645 368.014 9.70797 369.276 9.93821L369.725 7.47881L370.174 5.01941C370.509 5.08057 370.722 5.22192 370.809 5.29029C370.89 5.35426 370.892 5.37757 370.83 5.29206C370.7 5.11003 370.482 4.71696 370.209 4.0064L367.875 4.90327ZM369.725 7.47881L369.276 9.93821C370.732 10.2038 372.04 9.73002 373.076 8.95197L371.575 6.95292L370.074 4.95386C369.962 5.03758 369.926 5.03837 369.966 5.02699C369.987 5.02122 370.019 5.01456 370.06 5.01246C370.102 5.01035 370.141 5.01343 370.174 5.01941L369.725 7.47881ZM371.575 6.95292L373.076 8.95197C374.108 8.17713 374.931 7.02187 375.619 5.76135L373.425 4.56358L371.231 3.36582C370.685 4.36487 370.275 4.8025 370.074 4.95386L371.575 6.95292ZM373.425 4.56358L375.619 5.76135C375.702 5.60955 375.66 5.7479 375.425 5.93071C375.29 6.03586 375.06 6.1802 374.734 6.26297C374.392 6.35 374.031 6.34601 373.694 6.25441C373.374 6.16748 373.151 6.02264 373.022 5.91986C372.896 5.81916 372.831 5.7361 372.818 5.71785C372.798 5.69179 372.858 5.76842 372.971 6.03648L375.275 5.06667L377.579 4.09685C377.384 3.63233 377.135 3.13856 376.807 2.70428C376.506 2.30508 375.931 1.68118 375.006 1.42962C373.92 1.13433 372.97 1.50483 372.35 1.98833C371.807 2.41167 371.456 2.95273 371.231 3.36582L373.425 4.56358ZM375.275 5.06667L372.971 6.03648C373.321 6.86947 373.744 7.67911 374.283 8.32256C374.798 8.93874 375.728 9.75782 377.089 9.77763L377.125 7.27789L377.161 4.77816C377.521 4.78339 377.796 4.89823 377.956 4.99555C378.102 5.08364 378.15 5.15304 378.117 5.11415C378.088 5.07922 378.019 4.98671 377.919 4.80746C377.82 4.63144 377.706 4.39798 377.579 4.09685L375.275 5.06667ZM377.125 7.27789L377.089 9.77763C378.538 9.79871 379.501 8.89409 380.002 8.2688C380.535 7.60263 380.952 6.76006 381.298 5.89039L378.975 4.96626L376.652 4.04213C376.523 4.36601 376.406 4.61829 376.305 4.80938C376.201 5.00425 376.129 5.10562 376.098 5.14462C376.063 5.18908 376.114 5.11002 376.274 5.01132C376.453 4.90084 376.761 4.77233 377.161 4.77816L377.125 7.27789ZM378.975 4.96626L381.298 5.89039C381.421 5.58223 381.52 5.38484 381.588 5.27048C381.664 5.14204 381.655 5.19477 381.528 5.30382C381.387 5.42469 381.015 5.68239 380.439 5.70002C379.852 5.71801 379.444 5.47465 379.267 5.33342L380.825 3.37842L382.383 1.42342C381.898 1.03644 381.181 0.674932 380.286 0.702364C379.402 0.729439 378.721 1.12418 378.272 1.5097C377.474 2.19431 376.984 3.20773 376.652 4.04213L378.975 4.96626ZM380.825 3.37842L379.267 5.33342C380.365 6.20832 381.82 6.70825 383.405 6.22447L382.675 3.83335L381.945 1.44224C381.994 1.42728 382.06 1.4142 382.138 1.41189C382.217 1.40956 382.288 1.41864 382.347 1.4331C382.464 1.46177 382.476 1.49702 382.383 1.42342L380.825 3.37842ZM382.675 3.83335L383.405 6.22447C383.606 6.16319 383.772 6.16064 383.95 6.20268L384.525 3.76978L385.1 1.33689C384.045 1.08727 382.978 1.1271 381.945 1.44224L382.675 3.83335ZM384.525 3.76978L383.95 6.20268C383.615 6.12353 383.417 5.97142 383.351 5.9146C383.288 5.86008 383.301 5.85384 383.372 5.96047C383.521 6.18312 383.748 6.627 384.025 7.38955L386.375 6.53642L388.725 5.6833C388.385 4.74725 387.996 3.88073 387.528 3.18117C387.11 2.55579 386.345 1.63115 385.1 1.33689L384.525 3.76978ZM386.375 6.53642L384.025 7.38955C384.36 8.31182 384.793 9.2689 385.41 9.98121C385.731 10.3513 386.225 10.8007 386.928 11.0496C387.708 11.3257 388.525 11.2755 389.243 10.955L388.225 8.67177L387.207 6.38856C387.388 6.30771 387.616 6.24336 387.879 6.23128C388.143 6.21914 388.388 6.26246 388.597 6.33642C388.991 6.47611 389.177 6.69305 389.19 6.70721C389.21 6.73141 389.162 6.67966 389.063 6.48657C388.969 6.30252 388.855 6.04036 388.725 5.6833L386.375 6.53642ZM388.225 8.67177L389.243 10.955C390.148 10.5516 390.776 9.84129 391.203 9.22673C391.652 8.58022 392.04 7.80353 392.387 6.9606L390.075 6.00981L387.763 5.05902C387.493 5.7157 387.264 6.13248 387.097 6.37328C386.908 6.64605 386.919 6.51694 387.207 6.38856L388.225 8.67177ZM390.075 6.00981L392.387 6.9606C392.504 6.67696 392.583 6.54447 392.607 6.50815C392.651 6.44398 392.522 6.67019 392.155 6.86167C391.948 6.96901 391.671 7.06254 391.339 7.0768C391.004 7.09118 390.705 7.021 390.466 6.91706C390.238 6.81797 390.088 6.69904 390.009 6.62684C389.967 6.58932 389.939 6.55843 389.922 6.53879C389.905 6.51904 389.896 6.50722 389.895 6.50624L391.925 5.04649L393.955 3.58673C393.674 3.19692 393.198 2.6531 392.459 2.33177C391.587 1.9523 390.642 2.01189 389.845 2.42689C389.169 2.77892 388.733 3.313 388.468 3.704C388.184 4.12286 387.955 4.59287 387.763 5.05902L390.075 6.00981ZM391.925 5.04649L389.895 6.50624C390.614 7.50577 391.418 8.38157 392.33 9.02783L393.775 6.988L395.22 4.94816C394.899 4.72052 394.469 4.30198 393.955 3.58673L391.925 5.04649ZM393.775 6.988L392.33 9.02783C393 9.50287 393.675 9.94139 394.355 10.3423L395.625 8.18891L396.895 6.03547C396.342 5.70911 395.783 5.34703 395.22 4.94816L393.775 6.988ZM395.625 8.18891L394.355 10.3423C395.076 10.7674 395.951 11.0066 396.904 10.8703C397.822 10.7389 398.563 10.2949 399.122 9.80476L397.475 7.92418L395.828 6.04359C395.771 6.09356 395.895 5.96375 396.196 5.92068C396.532 5.8726 396.791 5.97407 396.895 6.03547L395.625 8.18891ZM397.475 7.92418L399.122 9.80476C400.239 8.82687 401.031 7.22291 401.664 5.54634L399.325 4.66347L396.986 3.78059C396.707 4.52003 396.451 5.07362 396.226 5.47022C396.114 5.66626 396.02 5.80793 395.945 5.90635C395.908 5.95476 395.879 5.9892 395.858 6.01228C395.837 6.03544 395.827 6.04453 395.828 6.04359L397.475 7.92418ZM399.325 4.66347L401.664 5.54634C401.785 5.22675 401.834 5.19164 401.765 5.28135C401.738 5.31627 401.185 6.03168 400.092 5.96251C399.583 5.93028 399.209 5.7292 398.992 5.56878C398.789 5.41829 398.689 5.27936 398.669 5.25017C398.635 5.20271 398.7 5.28567 398.823 5.62793L401.175 4.78059L403.527 3.93325C403.342 3.41964 403.098 2.85582 402.756 2.37066C402.473 1.96921 401.726 1.05592 400.408 0.972497C399.007 0.883809 398.145 1.78878 397.81 2.22236C397.432 2.71072 397.174 3.28335 396.986 3.78059L399.325 4.66347ZM401.175 4.78059L398.823 5.62793C399.161 6.56698 399.571 7.47547 400.103 8.18236C400.583 8.821 401.659 9.91833 403.321 9.72053L403.025 7.23806L402.729 4.7556C403.214 4.69785 403.613 4.83969 403.856 4.98643C404.064 5.11231 404.134 5.22445 404.097 5.17517C404.067 5.13548 403.993 5.02349 403.885 4.80187C403.779 4.58549 403.659 4.29972 403.527 3.93325L401.175 4.78059ZM403.025 7.23806L403.321 9.72053C404.614 9.5665 405.698 8.91652 406.568 8.11521L404.875 6.27615L403.182 4.43709C402.818 4.77148 402.669 4.76277 402.729 4.7556L403.025 7.23806ZM404.875 6.27615L406.568 8.11521C407.379 7.36892 408.124 6.43853 408.818 5.37754L406.725 4.00953L404.633 2.64151C404.093 3.46699 403.604 4.04769 403.182 4.43709L404.875 6.27615ZM406.725 4.00953L408.818 5.37754C408.867 5.30136 408.732 5.55375 408.331 5.7597C408.104 5.87678 407.798 5.97381 407.437 5.9764C407.075 5.979 406.765 5.88608 406.531 5.76929C406.12 5.5636 405.978 5.30449 406.026 5.37663C406.051 5.41398 406.131 5.55343 406.25 5.85397L408.575 4.93506L410.9 4.01615C410.71 3.53656 410.483 3.05235 410.199 2.62251C409.938 2.22746 409.488 1.65762 408.769 1.29767C407.896 0.861341 406.902 0.872215 406.043 1.31391C405.335 1.67854 404.891 2.24608 404.633 2.64151L406.725 4.00953ZM408.575 4.93506L406.25 5.85397C406.888 7.4672 407.69 9.0207 408.819 9.96674L410.425 8.05076L412.031 6.13477C412.032 6.1359 411.994 6.1033 411.921 6.01202C411.85 5.92192 411.758 5.79084 411.65 5.6078C411.43 5.23717 411.177 4.71639 410.9 4.01615L408.575 4.93506ZM410.425 8.05076L408.819 9.96674C409.349 10.4106 410.192 10.8362 411.241 10.6865C412.207 10.5486 412.856 9.98652 413.217 9.58077C413.898 8.81638 414.333 7.72952 414.653 6.74282L412.275 5.97203L409.897 5.20124C409.764 5.61041 409.648 5.9024 409.554 6.09927C409.453 6.31341 409.418 6.32934 409.482 6.25669C409.535 6.1974 409.876 5.8306 410.534 5.73666C411.275 5.63097 411.81 5.94937 412.031 6.13477L410.425 8.05076ZM412.275 5.97203L414.653 6.74282C414.782 6.34483 414.87 6.17039 414.892 6.13314C414.901 6.11784 414.857 6.19878 414.743 6.31416C414.63 6.4272 414.372 6.65219 413.949 6.78489C413.48 6.93227 412.981 6.91015 412.546 6.74514C412.157 6.59789 411.927 6.37992 411.835 6.28057C411.676 6.11069 411.693 6.04605 411.809 6.33333L414.125 5.39101L416.441 4.44868C416.249 3.97829 415.957 3.36961 415.49 2.86931C414.982 2.32506 413.882 1.56517 412.451 2.01462C411.368 2.35463 410.807 3.21677 410.583 3.59776C410.296 4.0846 410.076 4.64788 409.897 5.20124L412.275 5.97203ZM414.125 5.39101L411.809 6.33333C412.003 6.80929 412.263 7.34255 412.628 7.80335C412.96 8.22344 413.694 8.97244 414.88 9.05324C416.134 9.13863 416.98 8.42663 417.382 7.97394C417.793 7.51114 418.073 6.96662 418.271 6.50618L415.975 5.51701L413.679 4.52783C413.569 4.78307 413.54 4.77005 413.643 4.65459C413.736 4.54923 414.274 4.0004 415.22 4.06479C416.098 4.12459 416.523 4.66842 416.547 4.69917C416.604 4.77064 416.555 4.7304 416.441 4.44868L414.125 5.39101ZM415.975 5.51701L418.271 6.50618C418.383 6.24691 418.387 6.33462 418.207 6.51456C418.102 6.62028 417.864 6.82629 417.479 6.95828C417.053 7.10392 416.582 7.11192 416.144 6.97321C415.746 6.84704 415.498 6.63905 415.384 6.52825C415.324 6.46895 415.284 6.42 415.262 6.39128C415.25 6.3763 415.242 6.36473 415.237 6.35733C415.232 6.34991 415.229 6.3458 415.229 6.34558C415.229 6.34534 415.231 6.34827 415.235 6.35478C415.238 6.36127 415.243 6.37076 415.25 6.38356C415.263 6.40951 415.28 6.44608 415.302 6.49489C415.345 6.59389 415.397 6.72849 415.457 6.90501L417.825 6.10372L420.193 5.30244C420.012 4.76586 419.788 4.21583 419.496 3.73823C419.259 3.35033 418.699 2.53804 417.656 2.20715C416.3 1.77726 415.215 2.43396 414.668 2.98253C414.18 3.47142 413.876 4.07143 413.679 4.52783L415.975 5.51701ZM417.825 6.10372L415.457 6.90501C415.638 7.44128 415.859 7.98395 416.142 8.45666C416.376 8.84926 416.892 9.6095 417.84 9.97985C419.103 10.4734 420.227 9.97999 420.876 9.40161C421.416 8.92071 421.744 8.31177 421.946 7.87147L419.675 6.82666L417.404 5.78186C417.298 6.01182 417.318 5.87546 417.549 5.66944C417.686 5.54713 417.959 5.34629 418.374 5.24242C418.822 5.1302 419.275 5.17236 419.66 5.3228C420.299 5.57266 420.507 6.01472 420.433 5.89145C420.408 5.84829 420.32 5.67741 420.193 5.30244L417.825 6.10372ZM419.675 6.82666L421.946 7.87147C422.059 7.62658 422.141 7.49169 422.183 7.43241C422.232 7.36193 422.18 7.46046 421.994 7.58551C421.778 7.73101 421.381 7.90624 420.866 7.86559C420.373 7.82667 420.054 7.6118 419.928 7.50733L421.525 5.58351L423.122 3.65969C422.687 3.29934 422.06 2.94435 421.259 2.8811C420.436 2.8161 419.73 3.08276 419.206 3.43544C418.294 4.04799 417.748 5.03271 417.404 5.78186L419.675 6.82666ZM421.525 5.58351L419.928 7.50733C420.87 8.2885 422.059 8.86339 423.447 8.82359L423.375 6.32462L423.303 3.82564C423.363 3.82393 423.395 3.83791 423.38 3.83189C423.357 3.82273 423.27 3.7825 423.122 3.65969L421.525 5.58351ZM423.375 6.32462L423.447 8.82359C423.848 8.81208 424.361 8.76947 424.861 8.6079C425.278 8.47336 426.361 8.03312 426.775 6.77477L424.4 5.99391L422.025 5.21305C422.195 4.69511 422.513 4.34763 422.777 4.14452C423.023 3.95608 423.239 3.87755 423.326 3.84944C423.485 3.79811 423.519 3.81946 423.303 3.82564L423.375 6.32462ZM424.4 5.99391L426.9 5.99398V5.68981L424.4 5.68974L421.9 5.68967V5.99384L424.4 5.99391ZM424.4 5.68974V8.18974H424.5V5.68974V3.18974H424.4V5.68974Z" fill="var(--stroke-0, #BFC6B4)"/>
</svg>
