<svg preserveAspectRatio="none" width="100%" height="100%" overflow="visible" style="display: block;" viewBox="0 0 472.41 584.418" fill="none" xmlns="http://www.w3.org/2000/svg">
<g id="Rectangle 4543">
<path d="M0.5 236.205C0.5 106.029 106.029 0.5 236.205 0.5V0.5C366.381 0.5 471.91 106.029 471.91 236.205V583.918H17.9331C12.8735 583.918 10.3437 583.918 8.32226 583.167C5.04836 581.952 2.46657 579.37 1.25071 576.096C0.5 574.074 0.5 571.545 0.5 566.485V236.205Z" fill="var(--fill-0, #D9D9D9)"/>
<path d="M471.91 583.918V584.418H472.41V583.918H471.91ZM8.32226 583.167L8.14819 583.636L8.32226 583.167ZM1.25071 576.096L1.71943 575.922L1.25071 576.096ZM471.91 236.205H471.41V583.918H471.91H472.41V236.205H471.91ZM471.91 583.918V583.418H17.9331V583.918V584.418H471.91V583.918ZM0.5 566.485H1V236.205H0.5H0V566.485H0.5ZM17.9331 583.918V583.418C15.3971 583.418 13.5178 583.418 12.0192 583.325C10.5246 583.233 9.44173 583.05 8.49633 582.699L8.32226 583.167L8.14819 583.636C9.22421 584.036 10.417 584.228 11.9575 584.323C13.4941 584.418 15.4094 584.418 17.9331 584.418V583.918ZM0.5 566.485H0C0 569.009 -0.000222266 570.924 0.0947921 572.461C0.190049 574.001 0.382379 575.194 0.781991 576.27L1.25071 576.096L1.71943 575.922C1.36833 574.976 1.18531 573.893 1.09289 572.399C1.00022 570.9 1 569.021 1 566.485H0.5ZM8.32226 583.167L8.49633 582.699C5.35884 581.533 2.88463 579.059 1.71943 575.922L1.25071 576.096L0.781991 576.27C2.04851 579.68 4.73787 582.37 8.14819 583.636L8.32226 583.167ZM236.205 0.5V1C366.105 1 471.41 106.305 471.41 236.205H471.91H472.41C472.41 105.752 366.657 0 236.205 0V0.5ZM236.205 0.5V0C105.753 0 0 105.752 0 236.205H0.5H1C1 106.305 106.305 1 236.205 1V0.5Z" fill="var(--stroke-0, #1C3A32)"/>
</g>
</svg>
