<svg width="50" height="52" viewBox="0 0 50 52" fill="none" xmlns="http://www.w3.org/2000/svg">
<path fill-rule="evenodd" clip-rule="evenodd" d="M16.7068 48.1192C11.9389 46.8581 6.94715 46.222 2.10481 45.6392C1.06184 45.517 0.0935203 46.1988 0.0190227 47.1593C-0.129973 48.1206 0.61544 48.9997 1.58391 49.1218C6.27726 49.6829 11.1192 50.2832 15.6635 51.4972C16.632 51.7605 17.6754 51.2185 17.9734 50.286C18.2714 49.3543 17.6752 48.3832 16.7068 48.1192Z" fill="#1A1A1A"/>
<path fill-rule="evenodd" clip-rule="evenodd" d="M31.1571 30.2347C23.4839 22.8544 14.8422 16.4241 7.31792 8.84576C6.64744 8.13799 5.45548 8.10008 4.7105 8.7608C3.96552 9.42223 3.89132 10.5344 4.63629 11.2422C12.1605 18.8423 20.8023 25.2937 28.4755 32.6958C29.2205 33.3867 30.4122 33.3965 31.1571 32.7168C31.8276 32.0379 31.9021 30.9257 31.1571 30.2347Z" fill="#1A1A1A"/>
<path fill-rule="evenodd" clip-rule="evenodd" d="M45.5399 1.85071C45.7634 6.07486 45.9864 10.299 46.2099 14.5239C46.2099 15.4914 47.1043 16.2385 48.1473 16.1915C49.1902 16.1437 49.9348 15.3201 49.9348 14.3518C49.7113 10.1207 49.4882 5.89019 49.2647 1.65972C49.1902 0.692152 48.2961 -0.0500236 47.2532 0.00263787C46.2847 0.0552993 45.4654 0.883842 45.5399 1.85071Z" fill="#1A1A1A"/>
</svg>
