<svg width="77" height="4" viewBox="0 0 77 4" fill="none" xmlns="http://www.w3.org/2000/svg">
<path d="M1.46731 2.21722C2.32136 2.20419 3.44088 2.21812 4.2917 2.23724C4.55835 2.24317 4.42332 2.26967 4.60739 2.27496C4.96739 2.28526 5.30278 2.27227 5.65854 2.28454C5.77644 2.28874 5.62968 2.33072 5.75331 2.33416C6.43077 2.35272 7.07167 2.34202 7.75794 2.35095C11.1383 2.39498 14.4611 2.41074 17.8828 2.42987C19.0111 2.43614 20.3825 2.47424 21.5479 2.45758C21.6839 2.45559 21.6028 2.41874 21.6287 2.41571C22.0347 2.36921 21.8997 2.4436 22.1647 2.45349C23.2168 2.49251 24.3866 2.49591 25.399 2.48168C25.8297 2.47553 25.3979 2.40233 25.8316 2.44342C25.8617 2.44619 25.7524 2.48532 25.8705 2.4895C26.1384 2.49888 26.6466 2.49189 26.8542 2.49499C27.2543 2.50116 27.3205 2.50077 27.699 2.50122C28.2163 2.50217 28.8317 2.52162 29.3868 2.51275C29.5052 2.51074 29.3484 2.47063 29.5373 2.4638C29.7265 2.45699 30.2268 2.46039 30.3955 2.46984C30.5642 2.4793 30.4923 2.51083 30.5222 2.51806C30.7678 2.57906 31.3466 2.49458 31.421 2.49249C32.7787 2.45689 33.943 2.50501 35.2175 2.50488C36.185 2.50467 37.2195 2.48878 38.1401 2.49096C39.2369 2.49371 40.1665 2.51545 41.232 2.51171C41.3444 2.51137 41.2126 2.4642 41.35 2.46368C42.8091 2.45819 44.2581 2.46333 45.711 2.49517C45.8567 2.49841 45.6689 2.53982 45.8145 2.54553C46.7057 2.57956 48.1159 2.66131 48.6453 2.48101C49.249 2.48805 49.9819 2.49533 50.522 2.53167C50.8702 2.55506 50.532 2.60018 50.9598 2.58093C51.0562 2.57664 50.9308 2.53713 51.0755 2.53369C51.6846 2.51922 52.3502 2.53207 52.9528 2.51165C53.0753 2.50741 53.0419 2.47201 53.0766 2.46563C53.3685 2.41401 53.8544 2.49935 53.9603 2.50555C54.7669 2.55179 55.356 2.53359 56.1074 2.53472C56.2818 2.53501 56.0756 2.48745 56.2434 2.48602C57.1137 2.4792 58.0151 2.48329 58.8672 2.50439C59.0568 2.5092 58.8825 2.5497 58.973 2.55407C59.3724 2.57285 59.4609 2.49634 59.844 2.51287C59.9247 2.51626 59.8792 2.55094 59.894 2.55474C60.1245 2.61452 60.3248 2.52982 60.3841 2.52795C61.1341 2.5024 61.6135 2.59082 62.3381 2.5783C62.4248 2.57672 62.2293 2.53284 62.473 2.53106C64.0963 2.51895 65.8132 2.531 67.42 2.5661C67.6699 2.57149 67.4915 2.60445 67.5072 2.60852C67.7635 2.672 67.9293 2.58694 68.0107 2.58373C68.6534 2.56068 69.2537 2.63201 69.6904 2.5307C71.1355 2.54936 72.5771 2.54208 74.0156 2.54473L74.0562 2.54973C74.7233 2.71788 75.3891 2.88805 76.0527 3.06407L75.9889 3.36289C75.4132 3.25232 74.8425 3.14039 74.2765 3.02468C74.2431 3.01795 74.3103 2.98685 74.2435 2.9736C73.4397 2.81443 73.5783 2.90407 73.0279 2.89427C72.8889 2.89168 72.4924 2.73026 72.4572 2.71757C72.3287 2.67067 72.4761 2.63118 72.4325 2.61909C72.0706 2.52134 72.101 2.73462 71.6029 2.6566C71.5873 2.65382 71.6588 2.6266 71.6174 2.61631C71.4888 2.58424 71.3574 2.5791 71.232 2.54656C70.9454 2.47193 70.8564 2.35681 70.4043 2.34787C70.3472 2.34705 70.4151 2.47505 69.9733 2.40407C69.8002 2.37576 69.0092 2.26345 68.7911 2.22552C68.5723 2.18707 68.7285 2.17101 68.7131 2.16719C68.1279 2.03506 68.3553 2.04611 68.069 1.93222C67.7829 1.81899 67.8414 2.00393 67.7183 2.00698C67.5949 2.00985 67.1633 1.91095 67.0583 1.8829C66.9532 1.8547 67.0898 1.84845 66.9957 1.82797C66.3718 1.69355 66.7077 1.8783 66.4966 1.87911C65.9992 1.88188 65.6372 1.70606 65.1877 1.63901C65.0665 1.62097 65.1622 1.66228 65.0536 1.65205C64.6239 1.61144 64.371 1.54104 63.8806 1.52298C63.8007 1.51999 63.3981 1.55366 63.1487 1.46908C63.1134 1.45695 63.2197 1.43584 63.0376 1.40889C62.7656 1.36848 62.2745 1.30998 61.9803 1.29122C61.7631 1.27735 62.0057 1.35539 61.7351 1.31159C61.6148 1.29216 61.8422 1.28341 61.616 1.24956C61.3901 1.21555 60.81 1.16127 60.5893 1.14214C60.369 1.12286 60.4858 1.17433 60.4678 1.1754C60.3586 1.18087 59.9345 1.16229 59.8972 1.15906C58.0139 0.997498 56.2774 0.805002 54.4386 0.725206C54.2941 0.718943 54.3879 0.76688 54.3659 0.766364C53.8706 0.757406 54.2666 0.665061 53.9229 0.608788C53.9686 0.697984 53.7642 0.671269 53.4165 0.663593C53.2489 0.660017 53.3384 0.698004 53.323 0.70068C53.0724 0.739466 52.9024 0.665813 52.8585 0.650301C52.6961 0.593238 52.5141 0.643746 52.4034 0.605823C52.2926 0.568175 52.553 0.53057 52.2185 0.516903C52.1234 0.543935 52.3682 0.635348 52.1138 0.637803C51.1555 0.645199 49.3687 0.527442 48.6028 0.506318C47.836 0.483513 47.5806 0.485896 47.1377 0.468247C46.3318 0.437725 46.6265 0.501657 46.124 0.524376C45.6191 0.547938 45.8653 0.402012 45.793 0.36964C45.7218 0.337374 45.6436 0.369609 45.5548 0.351645C45.4662 0.3337 45.6583 0.313087 45.4498 0.305441C45.2416 0.297616 44.6782 0.352932 44.6042 0.386319C44.4489 0.45679 44.7045 0.5304 44.1558 0.504926C44.1242 0.503436 44.2267 0.464368 44.1057 0.460638C43.1369 0.432419 42.1555 0.439416 41.1863 0.42811C41.0534 0.426505 41.1715 0.381354 41.0941 0.379943C40.3001 0.365691 40.5848 0.433984 40.1499 0.523468C40.2456 0.41379 40.0038 0.351935 39.3943 0.365477C39.0278 0.373811 39.0907 0.419499 38.8556 0.458689C38.7858 0.470463 38.529 0.444957 38.483 0.468413C38.3316 0.545145 38.5764 0.618996 37.9523 0.604787C37.9249 0.604064 38.0109 0.561857 37.9162 0.562259C37.3039 0.565104 37.2296 0.643208 36.5667 0.675239C36.054 0.700078 35.1308 0.689482 34.5333 0.707773C34.5374 0.586117 33.987 0.637738 33.7652 0.731659C33.3838 0.745501 32.9699 0.76985 32.5965 0.776696C32.468 0.779097 32.5506 0.739864 32.5342 0.736874C32.2834 0.689706 32.1174 0.779642 32.036 0.786992C31.1523 0.863342 30.4126 0.842478 29.5573 0.952945C29.5273 0.95689 29.4839 1.04377 29.2536 0.995861C29.2386 0.992514 29.5166 0.937518 29.1172 0.958402C28.7179 0.97923 27.9565 0.981107 27.3937 1.05682C27.2541 1.07525 26.9259 1.16522 26.6487 1.13018C26.6119 1.12536 26.65 1.0986 26.5967 1.08868C26.4243 1.05728 26.3374 1.14846 26.1324 1.08987C25.9273 1.03132 25.5068 1.00568 24.9409 1.09579C24.9237 1.09847 24.7901 1.17558 24.6171 1.1869C24.3379 1.2051 23.9385 1.22003 23.6439 1.24225C23.5028 1.25291 23.5962 1.28803 23.5718 1.2906C22.6216 1.38466 21.9396 1.3995 20.9274 1.46348C20.7411 1.47516 20.2083 1.5752 19.8394 1.56002C19.4357 1.54348 19.8238 1.30487 18.9258 1.42838C18.5626 1.47828 18.1219 1.77707 17.4453 1.69929C16.1612 1.84304 14.9832 1.8781 13.6978 2.04338C13.6409 2.05069 13.467 2.13973 13.3322 2.1511C13.1322 2.16784 13.019 2.14409 12.8754 2.15509C12.2741 2.20033 11.7198 2.28141 11.1328 2.33231C10.9153 2.35123 10.9881 2.30896 10.728 2.33166C10.4676 2.35445 10.2983 2.41713 9.94114 2.42885C9.67122 2.43758 9.39308 2.36914 9.03268 2.39292C9.02786 2.4873 8.78152 2.50914 8.34221 2.57675C8.25773 2.5898 8.35199 2.61329 8.31218 2.62114C8.14942 2.65386 8.00365 2.64102 7.85323 2.6741C7.81684 2.68207 7.81822 2.71401 7.78865 2.72232C7.53752 2.79415 7.10634 2.76452 7.03194 2.75932C6.74743 2.73972 6.62017 2.79407 6.40248 2.7969C6.18495 2.79973 6.50519 2.74441 6.25202 2.75819C5.72778 2.78673 5.04637 2.86021 4.52958 2.91093C4.32053 2.93164 4.4674 2.95964 4.43759 2.96358C4.00644 3.01799 3.56107 3.0177 3.32719 3.12684C3.00133 2.9395 3.06652 3.17473 2.43248 3.19551C2.38244 3.19707 2.30871 3.10031 2.49777 3.06562C2.68676 3.03095 2.97818 3.03376 3.23812 2.9834C3.29986 2.97149 3.64514 2.83862 3.69275 2.82787C4.0666 2.74365 4.1351 2.89262 4.15601 2.89906C4.3917 2.96756 4.81012 2.82009 4.92184 2.80159C5.43471 2.71666 5.89542 2.69254 6.32918 2.62563C6.61429 2.58193 6.6321 2.4781 6.85658 2.45901C7.60494 2.39542 7.85998 2.51279 8.56227 2.32094C8.71196 2.28008 8.5508 2.1841 9.10338 2.2183C9.13823 2.22045 9.54877 2.26105 9.77524 2.18859C9.80369 2.17946 9.79969 2.14734 9.83777 2.14096C10.0929 2.09884 10.2661 2.10817 10.5428 2.06944C10.8206 2.03061 11.146 1.98131 11.4753 1.96138C11.6711 1.94954 11.9261 1.98623 12.0203 1.99226C12.2866 2.01008 12.56 1.9147 12.726 1.95106C12.8933 1.98756 12.5831 2.09512 13.0119 2.08911C13.02 2.00395 13.0482 1.9147 13.0658 1.82819C13.986 1.74644 14.9325 1.68829 15.8651 1.60238C15.981 1.59162 15.8585 1.55704 15.9826 1.54437C16.5047 1.49126 16.9632 1.48376 17.5163 1.42355C17.9416 1.37702 18.4017 1.29014 18.8401 1.24154C19.1154 1.31507 19.7657 1.22867 20.2503 1.19846C20.4187 1.18793 20.4094 1.21445 20.5294 1.21323C20.9814 1.20817 20.7639 1.14032 20.8859 1.11717C21.408 1.01854 21.4684 1.2067 22.0828 1.15438C22.1117 1.15191 22.5143 1.0182 22.569 1.00768C22.9215 0.939158 22.6307 1.03877 22.8535 1.02951C23.2598 1.01277 23.542 1.0163 24.0101 0.951976C24.1465 0.933078 24.47 0.845543 24.7376 0.876068C24.7738 0.879983 24.7564 0.915201 24.7853 0.915137C25.3068 0.911324 25.3121 0.804351 25.6046 0.747867C25.897 0.691408 26.354 0.734186 26.447 0.749233C26.6908 0.787836 26.2646 0.784949 26.2518 0.79126C26.103 0.86551 26.4322 0.832111 26.6831 0.820874C26.7265 0.922617 27.0757 0.8933 26.943 0.80887C26.9279 0.799671 26.7338 0.822268 26.6831 0.820874C26.8967 0.703959 27.2777 0.665675 27.7194 0.73345C27.9241 0.765462 27.7377 0.829408 28.3477 0.772109C28.6239 0.746351 28.5126 0.681165 28.7551 0.646686C29.3064 0.568163 30.0351 0.59277 30.614 0.550149C30.8231 0.53473 30.6171 0.506698 30.7598 0.494833C31.1385 0.4633 31.4727 0.475032 31.8488 0.440431C31.8829 0.437251 31.7973 0.400398 31.9145 0.393837C32.8167 0.342778 33.6 0.332063 34.5315 0.292986C34.9893 0.273564 35.7993 0.218844 36.2649 0.206863C37.0731 0.184983 38.0883 0.213752 38.7734 0.181616C39.2258 0.160664 39.1275 0.122104 39.3217 0.0892877C39.6981 0.0255963 40.363 0.109707 40.4519 0.123312C40.4547 0.123689 40.0657 0.14108 40.2738 0.158127C40.3954 0.199829 40.4475 0.123591 40.4519 0.123312C40.511 0.131629 41.2849 0.127783 41.4434 0.117994C41.5279 0.112475 41.4801 0.0741085 41.5241 0.0719771C42.5699 0.022327 43.6104 0.00514334 44.6695 0.0244367C44.6881 0.0252451 44.66 0.0688918 44.7037 0.0702501C45.3119 0.0905487 45.7074 0.0394515 46.2135 0.012072C46.7194 -0.0151258 47.1183 0.000950128 47.4143 0.0804341C47.7968 0.0766473 48.3444 0.120219 48.6577 0.147388C48.9713 0.174485 49.0169 0.0907573 49.0445 0.0896962C49.9047 0.0572057 50.4098 0.121018 51.3008 0.160835C51.7241 0.179697 52.5728 0.202681 53.0323 0.215462C53.3962 0.225143 53.6133 0.255943 53.9504 0.260755C53.996 0.261439 53.952 0.221226 53.966 0.220498C54.3432 0.195131 54.1581 0.278051 54.2346 0.29868C54.5116 0.373998 54.6828 0.415286 55.1628 0.415421C55.2737 0.415482 55.6025 0.302033 55.8052 0.307176C56.068 0.314081 55.966 0.355322 56.2411 0.361791C56.2646 0.362413 56.2617 0.332621 56.4309 0.345274C57.2163 0.403661 58.0704 0.484458 58.8862 0.548675C58.9976 0.557568 58.8586 0.499185 59.0197 0.511323C59.776 0.568409 60.6017 0.644673 61.3354 0.738034C61.5159 0.761168 61.3992 0.78269 61.4375 0.796191C61.6735 0.878234 62.0222 0.827544 62.0789 0.831726C63.4281 0.928492 64.4448 1.12086 65.819 1.25297C65.8931 1.25977 66.476 1.24058 66.7216 1.35173C66.7384 1.35916 66.9807 1.47146 67.2116 1.44653C67.226 1.44497 67.0736 1.38309 67.3484 1.42366C67.6245 1.46443 68.0677 1.49635 68.438 1.59367C68.5553 1.6244 68.8258 1.74291 69.1915 1.73061C69.2143 1.7292 69.7898 1.6662 69.9684 1.79346C69.9977 1.81443 69.9489 1.91349 70.3798 1.92295C70.4622 1.92467 70.3188 1.87941 70.5341 1.89681C70.8642 1.92339 71.2938 2.01753 71.7054 2.03429C71.7783 2.03722 72.0858 2.01297 72.3156 2.10465C72.3516 2.119 72.2751 2.14246 72.4003 2.16644C72.9944 2.28044 73.6348 2.36182 74.2364 2.48814C74.4495 2.53287 74.3303 2.57038 74.5515 2.62349C74.7727 2.67654 75.2226 2.76905 75.4631 2.78477C75.7036 2.80047 75.4611 2.66577 75.8165 2.72088C75.9094 2.73532 76.0022 2.75013 76.095 2.76528L75.9054 3.65289C75.2347 3.49513 74.5701 3.32323 73.9067 3.14773L74.0156 3.16115C73.2509 3.15082 72.4863 3.13581 71.7188 3.13195C71.489 3.13079 71.6795 3.16326 71.3409 3.16387C70.0925 3.16629 67.9371 3.19673 66.8538 3.12774C65.9858 3.07248 67.0781 3.03041 66.4148 3.00793C66.0947 2.9972 65.7485 3.10269 65.6712 3.10601C64.9164 3.13975 64.3919 3.09302 63.7125 3.10735C63.5722 3.11033 63.7098 3.15308 63.5904 3.15514C63.1826 3.16256 62.754 3.14347 62.3643 3.14697C62.1895 3.14863 62.2217 3.18129 62.0608 3.17876C61.6759 3.17311 61.3355 3.15938 60.9602 3.12878C60.926 3.12599 61.1567 3.08537 60.8719 3.08386C60.4109 3.08153 59.8388 3.05133 59.3085 3.08251C59.1512 3.09189 59.145 3.16653 58.8068 3.11498C58.7358 3.10422 58.8263 3.0146 58.4324 3.09203C58.3661 3.1049 57.7043 3.20935 57.3795 3.14202C57.2938 3.1243 57.0751 3.05097 56.8859 3.06249C56.8602 3.06433 56.963 3.10442 56.8062 3.10833C56.2536 3.12141 55.6745 3.11714 55.1068 3.12969C54.9552 3.13312 55.181 3.17461 54.9551 3.1784C54.3337 3.18888 53.558 3.17832 52.9504 3.16534C52.7264 3.16047 52.8813 3.12611 52.865 3.12237C52.6029 3.06154 52.4479 3.14364 52.3609 3.14843C51.8199 3.1771 51.4079 3.13853 50.9092 3.14874C50.7715 3.15145 50.8691 3.19059 50.8417 3.19408C50.5576 3.22819 50.7693 3.15789 50.5894 3.15014C50.0856 3.1282 49.524 3.13134 49.0144 3.13635C48.8273 3.13824 49.0376 3.18363 48.8697 3.18481C47.8756 3.19263 46.8422 3.18829 45.872 3.16326C45.6894 3.15847 45.8043 3.12352 45.7662 3.11553C45.5038 3.05968 45.1193 3.13586 45.0308 3.14312C44.6284 3.17626 44.4721 3.14535 44.1168 3.15112C42.3811 3.17984 40.2379 3.15937 38.5994 3.14672C36.4644 3.13044 34.8076 3.09719 32.7716 3.10583C32.6422 3.10633 32.7727 3.15283 32.6611 3.15386C31.2209 3.16507 29.8031 3.1469 28.36 3.16033C28.2416 3.16135 28.4123 3.20543 28.2222 3.20855C27.8324 3.21526 27.3385 3.21286 26.9443 3.19878C26.7521 3.192 27.01 3.15418 26.8164 3.14813C26.3658 3.13394 25.8828 3.1308 25.4199 3.13787C25.223 3.14097 25.5202 3.18606 25.2641 3.18658C23.5201 3.19105 21.8074 3.19881 20.045 3.14043C19.9242 3.13643 19.8182 3.0448 19.5613 3.06237C19.5419 3.0878 19.543 3.11771 19.5345 3.14489C16.9958 3.15953 14.4829 3.12777 11.937 3.12286C11.8296 3.12266 12.0151 3.17121 11.8073 3.17107C10.6045 3.17036 9.43651 3.18381 8.20619 3.13555C8.08412 3.13083 8.14675 3.04543 7.78701 3.05834C7.72356 3.0607 7.18175 3.07209 7.04167 3.09063C7.02264 3.09343 7.12149 3.13329 6.9469 3.13445C5.93231 3.14051 4.86907 3.13141 3.85624 3.10705C3.69278 3.10304 3.86685 3.06059 3.75043 3.05737C2.92455 3.03483 2.02624 3.0671 1.23708 3.02856C0.708847 3.0026 0.904415 2.92922 0.623717 2.85699C0.584015 2.8468 0.256916 2.84518 0.240001 2.80316C0.196574 2.69748 0.355011 2.58176 0.29 2.46911C0.276265 2.44485 -0.161805 2.47098 0.0975605 2.41235C0.11568 2.40842 0.433283 2.38897 0.511509 2.36907C0.565973 2.35532 0.467828 2.31258 0.57895 2.29498C0.690064 2.27739 0.812163 2.31322 0.996387 2.29254C1.18053 2.2716 1.09956 2.22298 1.46731 2.21722ZM50.0697 0.273909C50.3599 0.323553 50.4075 0.175434 50.0912 0.201581C50.0758 0.203029 50.0548 0.271458 50.0697 0.273909ZM14.9302 1.8024C15.3167 1.83404 15.5667 1.71456 15.2949 1.68755C15.0229 1.66067 14.8123 1.7929 14.9302 1.8024ZM11.0023 2.21278C11.447 2.223 11.4993 2.00508 11.029 2.09254C11.002 2.09753 10.9765 2.21218 11.0023 2.21278ZM1.92545 2.83642C1.92143 2.83443 1.6863 2.8325 1.68068 2.83447C1.55548 2.88196 2.02565 2.8858 1.92545 2.83642ZM7.12209 2.64076C7.26254 2.6557 7.65347 2.58399 7.47985 2.56522C7.34032 2.55009 6.9474 2.62214 7.12209 2.64076ZM65.1843 1.56507C65.1886 1.56781 65.3561 1.59008 65.3542 1.57719C65.3477 1.53549 65.1129 1.51871 65.1843 1.56507ZM0.552975 2.79096C1.50392 3.03704 2.03916 3.35149 1.00628 3.07277C0.819232 3.0223 1.42483 3.11987 1.18948 3.04473C0.758826 2.90735 0.441539 2.94137 0.00923748 2.77249C-0.0689928 2.7418 0.498823 2.77655 0.554726 2.79115C0.554143 2.79109 0.553559 2.79103 0.552975 2.79096ZM50.232 0.458542C50.2378 0.460662 50.4711 0.469892 50.4768 0.468149C50.6047 0.424691 50.1345 0.40603 50.232 0.458542ZM74.8969 3.08924C74.9087 3.09538 75.4423 3.19207 75.4607 3.19151C75.753 3.16349 74.6735 2.96755 74.8969 3.08924ZM34.5238 0.704941C34.2692 0.763584 33.9716 0.782381 33.7663 0.731668C34.0188 0.723417 34.2672 0.712949 34.5238 0.704941Z" fill="#1A352D"/>
</svg>
