<svg width="5" height="79" viewBox="0 0 5 79" fill="none" xmlns="http://www.w3.org/2000/svg">
<path d="M1.01855 39.0098C1.01488 39.3548 1.01437 39.6986 1.01172 40.041L1.00976 40.041C0.733846 40.0394 0.508798 40.2612 0.506834 40.5371C0.502511 41.2195 0.500255 41.8975 0.499998 42.5703C0.499998 42.8464 0.72392 43.0702 0.999998 43.0703L1.00195 43.0703C1.00234 43.4146 1.00244 43.7577 1.0039 44.0996L1.00293 44.0996C0.72679 44.1012 0.504241 44.3264 0.505857 44.6025L0.523436 46.6348C0.526847 46.9109 0.75415 47.1323 1.03027 47.1289L1.03222 47.1279C1.03704 47.472 1.03994 47.8151 1.0459 48.1572C0.769936 48.1627 0.550388 48.391 0.555662 48.667L0.60156 50.6992C0.608792 50.9751 0.838375 51.1926 1.11426 51.1855L1.11621 51.1846C1.12579 51.5288 1.13569 51.8722 1.14648 52.2148L1.14551 52.2148C0.869516 52.224 0.652921 52.4555 0.662107 52.7314C0.684734 53.4112 0.709889 54.0881 0.737302 54.7627C0.748513 55.0386 0.980986 55.2533 1.25683 55.2422L1.25781 55.2412C1.27242 55.5852 1.28784 55.9286 1.30371 56.2715L1.30273 56.2715C1.02691 56.2848 0.813871 56.5191 0.827146 56.7949L0.932615 58.8262C0.948059 59.1018 1.1843 59.3132 1.45996 59.2979L1.46093 59.2969C1.48069 59.64 1.50141 59.9827 1.52246 60.3252L1.52051 60.3252C1.24511 60.3428 1.03627 60.581 1.05371 60.8564C1.09657 61.5333 1.14153 62.2092 1.18945 62.8848C1.20898 63.1601 1.44828 63.368 1.72363 63.3486L1.72461 63.3477C1.74954 63.6902 1.77648 64.0325 1.80273 64.375L1.80078 64.375C1.52548 64.3966 1.31921 64.6378 1.34082 64.9131C1.39382 65.5882 1.4497 66.2635 1.50781 66.9395C1.53146 67.2146 1.77373 67.4181 2.04883 67.3945L2.04883 67.3936C2.07884 67.7355 2.11124 68.0775 2.14258 68.4199L2.14062 68.4199C1.86577 68.4457 1.66381 68.69 1.68945 68.9648L1.88574 70.9883C1.90962 71.2257 2.09578 71.4064 2.32324 71.4336L2.32324 72.5381C2.16948 72.6372 2.07502 72.8155 2.0957 73.0098C2.16772 73.6808 2.24231 74.3545 2.31933 75.0303C2.32004 75.0365 2.32231 75.0427 2.32324 75.0488L2.32324 75.9736L2.33007 76.0596L2.41797 76.5654C2.43753 76.6779 2.49533 76.7738 2.57324 76.8457C2.56329 76.8787 2.5566 76.913 2.55371 76.9482L2.55566 77.0498C2.56948 77.1646 2.58369 77.2795 2.59765 77.3945C2.58568 77.4537 2.58375 77.516 2.59472 77.5791L2.68261 78.0859C2.72922 78.3531 2.98072 78.534 3.24902 78.4941C3.48375 78.4591 3.65662 78.2662 3.67382 78.0381L3.67187 77.9385L3.54882 76.9297C3.53389 76.806 3.47308 76.7 3.38769 76.6221C3.4091 76.5503 3.41702 76.4733 3.40332 76.3945L3.32324 75.9326L3.32324 74.9873C3.32324 74.9468 3.31574 74.9078 3.30664 74.8701C3.25051 74.377 3.197 73.8851 3.14355 73.3945C3.25213 73.3029 3.3231 73.1678 3.32324 73.0146L3.32324 71.041C3.32314 70.7729 3.1117 70.5554 2.84668 70.543C2.83844 70.46 2.8314 70.3769 2.82324 70.2939L2.82324 69.5684L2.92383 69.5576C3.15151 69.5109 3.32317 69.3098 3.32324 69.0684L3.32324 67.0957C3.32324 66.8541 3.15159 66.6521 2.92383 66.6055L2.82324 66.5957L2.82324 65.6221L2.92383 65.6123C3.15162 65.5656 3.32324 65.3637 3.32324 65.1221L3.32324 63.1494C3.32324 62.9078 3.15162 62.7058 2.92383 62.6592L2.82324 62.6494L2.82324 61.6758L2.92383 61.666C3.15159 61.6193 3.32324 61.4174 3.32324 61.1758L3.32324 59.2031C3.32318 58.9616 3.15152 58.7606 2.92383 58.7139L2.82324 58.7031L2.82324 57.7305L2.92383 57.7197C3.1515 57.673 3.32314 57.4719 3.32324 57.2305L3.32324 55.2568C3.32303 55.0155 3.15145 54.8142 2.92383 54.7676L2.82324 54.7568L2.82324 53.7842L2.92383 53.7744C3.15163 53.7278 3.32324 53.5258 3.32324 53.2842L3.32324 51.3115C3.32324 51.0699 3.15162 50.868 2.92383 50.8213L2.82324 50.8115L2.82324 49.8379L2.92383 49.8281C3.1516 49.7814 3.32324 49.5795 3.32324 49.3379L3.32324 47.3652C3.32321 47.1237 3.15162 46.9216 2.92383 46.875L2.82324 46.8652L2.82324 45.8926L2.92383 45.8818C3.15149 45.8352 3.32312 45.634 3.32324 45.3926L3.32324 43.4189C3.32306 43.1775 3.15146 42.9764 2.92383 42.9297L2.82324 42.9189L2.82324 41.9463L2.92383 41.9365C3.15164 41.8899 3.32324 41.6879 3.32324 41.4463L3.32324 39.4736C3.32324 39.232 3.15161 39.0301 2.92383 38.9834L2.82324 38.9736L2.82324 38L2.92383 37.9902C3.15161 37.9436 3.32324 37.7416 3.32324 37.5L3.32324 35.5273C3.32324 35.2857 3.15164 35.0838 2.92383 35.0371L2.82324 35.0273L2.82324 34.0547L2.92383 34.0439C3.15147 33.9973 3.32309 33.7961 3.32324 33.5547L3.32324 31.5811C3.32309 31.3396 3.15148 31.1385 2.92383 31.0918L2.82324 31.0811L2.82324 30.1084L2.92383 30.0986C3.15164 30.052 3.32323 29.85 3.32324 29.6084L3.32324 27.6357C3.32324 27.3942 3.15161 27.1922 2.92383 27.1455L2.82324 27.1357L2.82324 26.1621L2.92383 26.1523C3.15161 26.1057 3.32324 25.9037 3.32324 25.6621L3.32324 23.6895C3.32324 23.4479 3.15164 23.2459 2.92383 23.1992L2.82324 23.1895L2.82324 22.2168L2.92383 22.2061C3.15146 22.1594 3.32306 21.9582 3.32324 21.7168L3.32324 19.7432C3.32312 19.5017 3.15149 19.3006 2.92383 19.2539L2.82324 19.2432L2.82324 18.2705L2.92383 18.2607C3.15162 18.2141 3.3232 18.0121 3.32324 17.7705L3.32324 15.7979C3.32324 15.5563 3.1516 15.3543 2.92383 15.3076L2.82324 15.2979L2.82324 14.3242L2.92383 14.3145C3.15162 14.2678 3.32324 14.0658 3.32324 13.8242L3.32324 11.8516C3.32324 11.61 3.15163 11.408 2.92383 11.3613L2.82324 11.3516L2.82324 10.3789L2.92383 10.3682C3.15145 10.3215 3.32303 10.1203 3.32324 9.87891L3.32324 7.90527C3.32315 7.66381 3.1515 7.46271 2.92383 7.41602L2.82324 7.40527L2.82324 6.43262L2.92383 6.42188C3.15152 6.37518 3.32318 6.1741 3.32324 5.93262L3.32324 3.95996C3.32324 3.71839 3.1516 3.51641 2.92383 3.46973L2.82324 3.45996L2.82324 2.51563C2.88881 2.506 2.94978 2.48302 3.00488 2.4502C3.19066 2.37724 3.32324 2.19799 3.32324 1.98633L3.32324 1C3.32324 0.730816 3.10983 0.509629 2.84082 0.5C2.57179 0.490399 2.34341 0.696326 2.32422 0.964844C2.29978 1.30682 2.27591 1.64732 2.25195 1.98633C2.23249 2.26172 2.43949 2.50094 2.71484 2.52051L2.71582 2.51953C2.69293 2.84512 2.6699 3.16931 2.64746 3.49219C2.6111 3.50585 2.57571 3.52165 2.54395 3.54297C2.31279 3.57315 2.12711 3.76339 2.11035 4.00488C2.06313 4.68888 2.01688 5.36701 1.97168 6.03906C1.95316 6.31434 2.16136 6.55141 2.43652 6.57031C2.41357 6.91396 2.39156 7.25611 2.36914 7.59668C2.0936 7.57869 1.8559 7.78793 1.83789 8.06348L1.70801 10.085C1.69059 10.3602 1.89882 10.5972 2.17383 10.6152C2.15208 10.9618 2.13249 11.307 2.11133 11.6504L2.11035 11.6504C1.83484 11.6337 1.59787 11.8436 1.58105 12.1191C1.53946 12.8006 1.49921 13.4762 1.45996 14.1455C1.44401 14.421 1.65415 14.6577 1.92969 14.6738L1.93066 14.6729C1.91082 15.0149 1.89129 15.3554 1.87207 15.6943L1.87109 15.6943C1.5954 15.6789 1.3592 15.8903 1.34375 16.166C1.30539 16.8503 1.26821 17.5282 1.23242 18.2002C1.21776 18.4755 1.42898 18.7102 1.7041 18.7256C1.68597 19.0706 1.67076 19.4141 1.65332 19.7559L1.65234 19.7559C1.37659 19.742 1.14186 19.9547 1.12793 20.2305C1.09367 20.912 1.06079 21.5875 1.0293 22.2568C1.01632 22.5327 1.22904 22.7673 1.50488 22.7803L1.50586 22.7793C1.49 23.1223 1.4741 23.4638 1.45898 23.8037L1.45801 23.8037C1.18243 23.7919 0.949725 24.0057 0.937499 24.2812C0.907657 24.9656 0.879362 25.6442 0.852538 26.3164C0.841538 26.5921 1.05549 26.8236 1.33105 26.835C1.31759 27.1806 1.3066 27.5247 1.29394 27.8672L1.29297 27.8672C1.017 27.8573 0.785309 28.0727 0.775389 28.3486C0.750856 29.0312 0.727334 29.7081 0.706053 30.3789C0.697521 30.6547 0.914559 30.8858 1.19043 30.8945L1.1914 30.8936C1.18087 31.2375 1.16885 31.5799 1.15918 31.9209C0.883447 31.9137 0.654017 32.1314 0.646483 32.4072C0.627919 33.089 0.610758 33.765 0.595702 34.4355C0.589507 34.7116 0.808889 34.9401 1.08496 34.9463L1.08594 34.9453C1.07859 35.2915 1.07183 35.6362 1.06543 35.9795L1.06445 35.9795C0.788351 35.9747 0.560459 36.1946 0.555663 36.4707C0.543793 37.154 0.533461 37.8322 0.525389 38.5049C0.522321 38.7805 0.743 39.006 1.01855 39.0098Z" stroke="#AEBDAF" stroke-linecap="round" stroke-linejoin="round" stroke-dasharray="2 2"/>
</svg>
